<svg xmlns="http://www.w3.org/2000/svg" xmlns:xlink="http://www.w3.org/1999/xlink" width="3000" zoomAndPan="magnify" viewBox="0 0 2250 749.999995" height="1000" preserveAspectRatio="xMidYMid meet" version="1.0"><defs><g/><clipPath id="a9c832e02f"><rect x="0" width="362" y="0" height="230"/></clipPath><clipPath id="70db101f10"><rect x="0" width="2034" y="0" height="620"/></clipPath><clipPath id="a68d64fa04"><rect x="0" width="778" y="0" height="230"/></clipPath></defs><rect x="-225" width="2700" fill="#ffffff" y="-74.999999" height="899.999994" fill-opacity="1"/><rect x="-225" width="2700" fill="#d5822c" y="-74.999999" height="899.999994" fill-opacity="1"/><g transform="matrix(1, 0, 0, 1, 1572, 515)"><g clip-path="url(#a9c832e02f)"><g fill="#ffffff" fill-opacity="1"><g transform="translate(0.957354, 181.251492)"><g><path d="M 56.84375 -84.84375 L 92.4375 -84.84375 L 92.4375 -71.6875 L 87.21875 -71.359375 C 84.96875 -71.128906 83.445312 -69.78125 82.65625 -67.3125 L 60.890625 0 L 35.09375 0 L 11.46875 -67.140625 C 10.90625 -68.710938 10.3125 -69.78125 9.6875 -70.34375 C 9.070312 -70.90625 8.035156 -71.242188 6.578125 -71.359375 L 1.6875 -71.6875 L 1.6875 -84.84375 L 41.328125 -84.84375 L 41.328125 -71.359375 L 31.03125 -70.84375 L 48.40625 -15.34375 L 48.75 -15.34375 L 65.625 -70.84375 L 56.84375 -71.359375 Z M 56.84375 -84.84375 "/></g></g></g><g fill="#ffffff" fill-opacity="1"><g transform="translate(100.985598, 181.251492)"><g><path d="M 44.359375 -12.3125 C 56.617188 -12.3125 62.75 -22.207031 62.75 -42 C 62.75 -52.007812 61.367188 -59.597656 58.609375 -64.765625 C 55.859375 -69.941406 51.25 -72.53125 44.78125 -72.53125 C 38.320312 -72.53125 33.570312 -70.054688 30.53125 -65.109375 C 27.5 -60.160156 25.984375 -53.414062 25.984375 -44.875 C 25.984375 -29.019531 28.90625 -19.066406 34.75 -15.015625 C 37.332031 -13.210938 40.535156 -12.3125 44.359375 -12.3125 Z M 5.5625 -42.515625 C 5.5625 -50.828125 6.796875 -58.046875 9.265625 -64.171875 C 11.742188 -70.304688 15.066406 -75.003906 19.234375 -78.265625 C 27.210938 -84.335938 36.039062 -87.375 45.71875 -87.375 C 52.457031 -87.375 58.160156 -86.273438 62.828125 -84.078125 C 67.503906 -81.890625 71.160156 -79.363281 73.796875 -76.5 C 76.441406 -73.632812 78.691406 -69.472656 80.546875 -64.015625 C 82.398438 -58.554688 83.328125 -52.117188 83.328125 -44.703125 C 83.328125 -29.179688 79.5625 -17.425781 72.03125 -9.4375 C 64.5 -1.457031 54.851562 2.53125 43.09375 2.53125 C 31.34375 2.53125 22.148438 -1.265625 15.515625 -8.859375 C 8.878906 -16.453125 5.5625 -27.671875 5.5625 -42.515625 Z M 5.5625 -42.515625 "/></g></g></g><g fill="#ffffff" fill-opacity="1"><g transform="translate(195.953401, 181.251492)"><g><path d="M 35.765625 -120.28125 L 35.765625 -14 L 45.375 -13.5 L 45.375 0 L 5.234375 0 L 5.234375 -12.8125 L 10.796875 -13.328125 C 14.054688 -13.660156 15.6875 -15.457031 15.6875 -18.71875 L 15.6875 -101.890625 C 15.6875 -104.359375 14.28125 -105.707031 11.46875 -105.9375 L 5.5625 -106.265625 L 5.5625 -120.28125 Z M 35.765625 -120.28125 "/></g></g></g><g fill="#ffffff" fill-opacity="1"><g transform="translate(252.124452, 181.251492)"><g><path d="M 35.765625 -120.28125 L 35.765625 -14 L 45.375 -13.5 L 45.375 0 L 5.234375 0 L 5.234375 -12.8125 L 10.796875 -13.328125 C 14.054688 -13.660156 15.6875 -15.457031 15.6875 -18.71875 L 15.6875 -101.890625 C 15.6875 -104.359375 14.28125 -105.707031 11.46875 -105.9375 L 5.5625 -106.265625 L 5.5625 -120.28125 Z M 35.765625 -120.28125 "/></g></g></g><g fill="#ffffff" fill-opacity="1"><g transform="translate(308.295502, 181.251492)"><g><path d="M 14.171875 -89.234375 L 14.171875 -109.3125 C 14.171875 -114.59375 17.316406 -117.234375 23.609375 -117.234375 C 29.910156 -117.234375 33.0625 -114.476562 33.0625 -108.96875 L 33.0625 -89.234375 L 29.6875 -30.359375 L 17.71875 -30.359375 Z M 23.359375 2.875 C 19.816406 2.875 17.003906 1.804688 14.921875 -0.328125 C 12.847656 -2.472656 11.8125 -5.117188 11.8125 -8.265625 C 11.8125 -11.410156 12.878906 -14.078125 15.015625 -16.265625 C 17.148438 -18.460938 19.929688 -19.5625 23.359375 -19.5625 C 26.796875 -19.5625 29.582031 -18.519531 31.71875 -16.4375 C 33.851562 -14.363281 34.921875 -11.75 34.921875 -8.59375 C 34.921875 -5.445312 33.878906 -2.75 31.796875 -0.5 C 29.710938 1.75 26.898438 2.875 23.359375 2.875 Z M 23.359375 2.875 "/></g></g></g></g></g><g fill="#ffffff" fill-opacity="1"><g transform="translate(100.274211, 595.367271)"><g><path d="M 9.8125 -26.734375 L 9.8125 -10.546875 C 9.8125 -8.265625 10.351562 -6.660156 11.4375 -5.734375 C 12.53125 -4.804688 14.09375 -4.34375 16.125 -4.34375 C 18.15625 -4.34375 19.734375 -4.847656 20.859375 -5.859375 C 21.984375 -6.867188 22.546875 -8.347656 22.546875 -10.296875 L 22.546875 -28.15625 L 19.71875 -28.296875 L 19.71875 -32.453125 L 31.28125 -32.453125 L 31.28125 -28.5 L 29.671875 -28.34375 C 28.722656 -28.25 28.25 -27.765625 28.25 -26.890625 L 28.25 -9.46875 C 28.25 -6.3125 27.140625 -3.835938 24.921875 -2.046875 C 22.710938 -0.253906 19.65625 0.640625 15.75 0.640625 C 11.851562 0.640625 8.90625 -0.226562 6.90625 -1.96875 C 4.90625 -3.71875 3.90625 -6.476562 3.90625 -10.25 L 3.90625 -28.15625 L 1.078125 -28.296875 L 1.078125 -32.453125 L 12.875 -32.453125 L 12.875 -28.5 L 11.265625 -28.34375 C 10.742188 -28.28125 10.367188 -28.144531 10.140625 -27.9375 C 9.921875 -27.726562 9.8125 -27.328125 9.8125 -26.734375 Z M 21.34375 -35.1875 C 20.351562 -35.1875 19.546875 -35.484375 18.921875 -36.078125 C 18.304688 -36.679688 18 -37.445312 18 -38.375 C 18 -39.300781 18.316406 -40.082031 18.953125 -40.71875 C 19.585938 -41.351562 20.394531 -41.671875 21.375 -41.671875 C 22.351562 -41.671875 23.15625 -41.351562 23.78125 -40.71875 C 24.414062 -40.082031 24.734375 -39.300781 24.734375 -38.375 C 24.734375 -37.445312 24.414062 -36.679688 23.78125 -36.078125 C 23.15625 -35.484375 22.34375 -35.1875 21.34375 -35.1875 Z M 11.578125 -35.1875 C 10.585938 -35.1875 9.785156 -35.484375 9.171875 -36.078125 C 8.554688 -36.679688 8.25 -37.445312 8.25 -38.375 C 8.25 -39.300781 8.566406 -40.082031 9.203125 -40.71875 C 9.835938 -41.351562 10.640625 -41.671875 11.609375 -41.671875 C 12.585938 -41.671875 13.394531 -41.351562 14.03125 -40.71875 C 14.664062 -40.082031 14.984375 -39.300781 14.984375 -38.375 C 14.984375 -37.445312 14.664062 -36.679688 14.03125 -36.078125 C 13.394531 -35.484375 12.578125 -35.1875 11.578125 -35.1875 Z M 11.578125 -35.1875 "/></g></g></g><g fill="#ffffff" fill-opacity="1"><g transform="translate(134.131521, 595.367271)"><g><path d="M 3.75 -1.46875 L 3.75 -29.46875 C 3.75 -30.21875 3.34375 -30.609375 2.53125 -30.640625 L 0.828125 -30.734375 L 0.828125 -34.796875 L 9.421875 -34.796875 L 9.421875 -23.234375 C 10.878906 -24.597656 12.847656 -25.28125 15.328125 -25.28125 C 18.378906 -25.28125 20.800781 -24.242188 22.59375 -22.171875 C 24.382812 -20.109375 25.28125 -17.207031 25.28125 -13.46875 C 25.28125 -4.0625 21.34375 0.640625 13.46875 0.640625 C 11.78125 0.640625 10 0.4375 8.125 0.03125 C 6.25 -0.375 4.789062 -0.875 3.75 -1.46875 Z M 9.421875 -17.28125 L 9.421875 -4.640625 C 10.648438 -3.984375 12.082031 -3.65625 13.71875 -3.65625 C 17.425781 -3.65625 19.28125 -6.664062 19.28125 -12.6875 C 19.28125 -18.1875 17.457031 -20.9375 13.8125 -20.9375 C 12.632812 -20.9375 11.609375 -20.59375 10.734375 -19.90625 C 9.859375 -19.226562 9.421875 -18.351562 9.421875 -17.28125 Z M 9.421875 -17.28125 "/></g></g></g><g fill="#ffffff" fill-opacity="1"><g transform="translate(162.963971, 595.367271)"><g><path d="M 13.859375 -25.28125 C 16.296875 -25.28125 18.226562 -24.6875 19.65625 -23.5 C 21.09375 -22.3125 21.8125 -20.644531 21.8125 -18.5 C 21.8125 -17.0625 21.5 -15.796875 20.875 -14.703125 C 20.257812 -13.617188 19.492188 -12.765625 18.578125 -12.140625 C 17.671875 -11.523438 16.566406 -11.023438 15.265625 -10.640625 C 13.085938 -9.984375 10.632812 -9.65625 7.90625 -9.65625 C 8 -7.9375 8.535156 -6.546875 9.515625 -5.484375 C 10.492188 -4.429688 11.988281 -3.90625 14 -3.90625 C 16.019531 -3.90625 18.039062 -4.617188 20.0625 -6.046875 L 21.90625 -2.09375 C 21.257812 -1.507812 20.160156 -0.90625 18.609375 -0.28125 C 17.066406 0.332031 15.304688 0.640625 13.328125 0.640625 C 9.359375 0.640625 6.445312 -0.457031 4.59375 -2.65625 C 2.738281 -4.851562 1.8125 -7.867188 1.8125 -11.703125 C 1.8125 -15.546875 2.867188 -18.769531 4.984375 -21.375 C 7.097656 -23.976562 10.054688 -25.28125 13.859375 -25.28125 Z M 11.640625 -14.125 C 12.828125 -14.332031 13.921875 -14.800781 14.921875 -15.53125 C 15.929688 -16.269531 16.4375 -17.144531 16.4375 -18.15625 C 16.4375 -20.132812 15.460938 -21.125 13.515625 -21.125 C 11.691406 -21.125 10.289062 -20.398438 9.3125 -18.953125 C 8.34375 -17.503906 7.804688 -15.773438 7.703125 -13.765625 C 9.140625 -13.796875 10.453125 -13.914062 11.640625 -14.125 Z M 11.640625 -14.125 "/></g></g></g><g fill="#ffffff" fill-opacity="1"><g transform="translate(188.283897, 595.367271)"><g><path d="M 4.640625 -5.46875 L 4.640625 -18.984375 C 4.640625 -19.503906 4.546875 -19.867188 4.359375 -20.078125 C 4.179688 -20.285156 3.867188 -20.410156 3.421875 -20.453125 L 1.359375 -20.59375 L 1.359375 -24.546875 L 9.609375 -24.546875 L 9.609375 -20.890625 C 10.191406 -22.148438 11.101562 -23.195312 12.34375 -24.03125 C 13.582031 -24.863281 15.003906 -25.28125 16.609375 -25.28125 C 18.222656 -25.28125 19.765625 -24.921875 21.234375 -24.203125 L 21.234375 -16.9375 L 16.6875 -16.59375 L 16.6875 -18.828125 C 16.6875 -19.484375 16.523438 -19.894531 16.203125 -20.0625 C 15.835938 -20.21875 15.398438 -20.296875 14.890625 -20.296875 C 13.585938 -20.296875 12.519531 -19.832031 11.6875 -18.90625 C 10.851562 -17.976562 10.4375 -16.800781 10.4375 -15.375 L 10.4375 -4.046875 L 14.6875 -3.859375 L 14.6875 0 L 1.609375 0 L 1.609375 -3.703125 L 3.21875 -3.859375 C 3.707031 -3.921875 4.066406 -4.054688 4.296875 -4.265625 C 4.523438 -4.484375 4.640625 -4.882812 4.640625 -5.46875 Z M 4.640625 -5.46875 "/></g></g></g><g fill="#ffffff" fill-opacity="1"><g transform="translate(212.53055, 595.367271)"><g><path d="M 23.515625 -23.5625 L 23.515625 -5.421875 C 23.515625 -4.898438 23.601562 -4.539062 23.78125 -4.34375 C 23.96875 -4.144531 24.285156 -4.03125 24.734375 -4 L 26.296875 -3.90625 L 26.296875 0 L 18.546875 0 L 18.546875 -2.828125 L 18.390625 -2.875 C 16.765625 -0.53125 14.539062 0.640625 11.71875 0.640625 C 8.394531 0.640625 5.9375 -0.414062 4.34375 -2.53125 C 2.75 -4.644531 1.953125 -7.539062 1.953125 -11.21875 C 1.953125 -15.644531 3.023438 -19.09375 5.171875 -21.5625 C 7.316406 -24.039062 10.535156 -25.28125 14.828125 -25.28125 C 17.597656 -25.28125 20.492188 -24.707031 23.515625 -23.5625 Z M 17.859375 -7.765625 L 17.859375 -20.390625 C 16.953125 -20.816406 15.703125 -21.03125 14.109375 -21.03125 C 11.921875 -21.03125 10.335938 -20.148438 9.359375 -18.390625 C 8.390625 -16.640625 7.90625 -14.316406 7.90625 -11.421875 C 7.90625 -6.148438 9.597656 -3.515625 12.984375 -3.515625 C 14.410156 -3.515625 15.578125 -3.941406 16.484375 -4.796875 C 17.398438 -5.660156 17.859375 -6.648438 17.859375 -7.765625 Z M 17.859375 -7.765625 "/></g></g></g><g fill="#ffffff" fill-opacity="1"><g transform="translate(241.899636, 595.367271)"><g><path d="M 10.34375 -34.796875 L 10.34375 -4.046875 L 13.125 -3.90625 L 13.125 0 L 1.515625 0 L 1.515625 -3.703125 L 3.125 -3.859375 C 4.0625 -3.953125 4.53125 -4.472656 4.53125 -5.421875 L 4.53125 -29.46875 C 4.53125 -30.1875 4.125 -30.578125 3.3125 -30.640625 L 1.609375 -30.734375 L 1.609375 -34.796875 Z M 10.34375 -34.796875 "/></g></g></g><g fill="#ffffff" fill-opacity="1"><g transform="translate(258.145531, 595.367271)"><g><path d="M 10.34375 -34.796875 L 10.34375 -4.046875 L 13.125 -3.90625 L 13.125 0 L 1.515625 0 L 1.515625 -3.703125 L 3.125 -3.859375 C 4.0625 -3.953125 4.53125 -4.472656 4.53125 -5.421875 L 4.53125 -29.46875 C 4.53125 -30.1875 4.125 -30.578125 3.3125 -30.640625 L 1.609375 -30.734375 L 1.609375 -34.796875 Z M 10.34375 -34.796875 "/></g></g></g><g fill="#ffffff" fill-opacity="1"><g transform="translate(274.391425, 595.367271)"><g><path d="M 9.859375 -3.859375 L 4.828125 7.5625 L 1.75 6.640625 L 3.265625 -3.265625 C 3.492188 -4.890625 4.289062 -5.703125 5.65625 -5.703125 C 6.34375 -5.703125 6.875 -5.597656 7.25 -5.390625 C 7.625 -5.179688 7.929688 -5.007812 8.171875 -4.875 C 8.421875 -4.75 8.59375 -4.648438 8.6875 -4.578125 C 8.78125 -4.515625 8.972656 -4.394531 9.265625 -4.21875 C 9.554688 -4.039062 9.753906 -3.921875 9.859375 -3.859375 Z M 9.859375 -3.859375 "/></g></g></g><g fill="#ffffff" fill-opacity="1"><g transform="translate(287.856566, 595.367271)"><g/></g></g><g fill="#ffffff" fill-opacity="1"><g transform="translate(299.32152, 595.367271)"><g><path d="M 17.765625 -23.5625 L 22.5 -23.5625 L 27.5625 -5.421875 L 27.671875 -5.421875 L 30.984375 -20.5 L 28.5 -20.640625 L 28.5 -24.546875 L 38.3125 -24.546875 L 38.3125 -20.78125 L 36.6875 -20.6875 C 36.039062 -20.625 35.601562 -20.234375 35.375 -19.515625 L 30.734375 0 L 23.71875 0 L 19.71875 -14.546875 L 19.5625 -14.546875 L 15.421875 0 L 8.25 0 L 3.3125 -19.46875 C 3.15625 -19.925781 2.984375 -20.234375 2.796875 -20.390625 C 2.617188 -20.554688 2.320312 -20.65625 1.90625 -20.6875 L 0.484375 -20.78125 L 0.484375 -24.546875 L 11.65625 -24.546875 L 11.65625 -20.640625 L 8.9375 -20.5 L 12.296875 -5.515625 L 12.390625 -5.515625 Z M 17.765625 -23.5625 "/></g></g></g><g fill="#ffffff" fill-opacity="1"><g transform="translate(339.813599, 595.367271)"><g><path d="M 12.828125 -3.5625 C 16.378906 -3.5625 18.15625 -6.425781 18.15625 -12.15625 C 18.15625 -15.050781 17.753906 -17.242188 16.953125 -18.734375 C 16.160156 -20.234375 14.828125 -20.984375 12.953125 -20.984375 C 11.085938 -20.984375 9.710938 -20.265625 8.828125 -18.828125 C 7.953125 -17.398438 7.515625 -15.453125 7.515625 -12.984375 C 7.515625 -8.390625 8.359375 -5.507812 10.046875 -4.34375 C 10.796875 -3.820312 11.722656 -3.5625 12.828125 -3.5625 Z M 1.609375 -12.296875 C 1.609375 -14.703125 1.960938 -16.789062 2.671875 -18.5625 C 3.390625 -20.34375 4.351562 -21.703125 5.5625 -22.640625 C 7.875 -24.398438 10.425781 -25.28125 13.21875 -25.28125 C 15.175781 -25.28125 16.828125 -24.960938 18.171875 -24.328125 C 19.523438 -23.691406 20.582031 -22.957031 21.34375 -22.125 C 22.113281 -21.300781 22.765625 -20.097656 23.296875 -18.515625 C 23.835938 -16.941406 24.109375 -15.082031 24.109375 -12.9375 C 24.109375 -8.445312 23.015625 -5.046875 20.828125 -2.734375 C 18.648438 -0.421875 15.863281 0.734375 12.46875 0.734375 C 9.070312 0.734375 6.410156 -0.363281 4.484375 -2.5625 C 2.566406 -4.757812 1.609375 -8.003906 1.609375 -12.296875 Z M 1.609375 -12.296875 "/></g></g></g><g fill="#ffffff" fill-opacity="1"><g transform="translate(367.280058, 595.367271)"><g/></g></g><g fill="#ffffff" fill-opacity="1"><g transform="translate(378.745024, 595.367271)"><g><path d="M 13.859375 -25.28125 C 16.296875 -25.28125 18.226562 -24.6875 19.65625 -23.5 C 21.09375 -22.3125 21.8125 -20.644531 21.8125 -18.5 C 21.8125 -17.0625 21.5 -15.796875 20.875 -14.703125 C 20.257812 -13.617188 19.492188 -12.765625 18.578125 -12.140625 C 17.671875 -11.523438 16.566406 -11.023438 15.265625 -10.640625 C 13.085938 -9.984375 10.632812 -9.65625 7.90625 -9.65625 C 8 -7.9375 8.535156 -6.546875 9.515625 -5.484375 C 10.492188 -4.429688 11.988281 -3.90625 14 -3.90625 C 16.019531 -3.90625 18.039062 -4.617188 20.0625 -6.046875 L 21.90625 -2.09375 C 21.257812 -1.507812 20.160156 -0.90625 18.609375 -0.28125 C 17.066406 0.332031 15.304688 0.640625 13.328125 0.640625 C 9.359375 0.640625 6.445312 -0.457031 4.59375 -2.65625 C 2.738281 -4.851562 1.8125 -7.867188 1.8125 -11.703125 C 1.8125 -15.546875 2.867188 -18.769531 4.984375 -21.375 C 7.097656 -23.976562 10.054688 -25.28125 13.859375 -25.28125 Z M 11.640625 -14.125 C 12.828125 -14.332031 13.921875 -14.800781 14.921875 -15.53125 C 15.929688 -16.269531 16.4375 -17.144531 16.4375 -18.15625 C 16.4375 -20.132812 15.460938 -21.125 13.515625 -21.125 C 11.691406 -21.125 10.289062 -20.398438 9.3125 -18.953125 C 8.34375 -17.503906 7.804688 -15.773438 7.703125 -13.765625 C 9.140625 -13.796875 10.453125 -13.914062 11.640625 -14.125 Z M 11.640625 -14.125 "/></g></g></g><g fill="#ffffff" fill-opacity="1"><g transform="translate(404.064938, 595.367271)"><g><path d="M 14.390625 -20.84375 C 13.609375 -21.132812 12.664062 -21.28125 11.5625 -21.28125 C 10.457031 -21.28125 9.570312 -21.023438 8.90625 -20.515625 C 8.238281 -20.015625 7.90625 -19.394531 7.90625 -18.65625 C 7.90625 -17.925781 8.023438 -17.359375 8.265625 -16.953125 C 8.515625 -16.546875 8.898438 -16.195312 9.421875 -15.90625 C 10.234375 -15.476562 11.207031 -15.109375 12.34375 -14.796875 C 13.476562 -14.492188 14.320312 -14.253906 14.875 -14.078125 C 15.4375 -13.898438 16.128906 -13.597656 16.953125 -13.171875 C 17.785156 -12.753906 18.410156 -12.300781 18.828125 -11.8125 C 19.972656 -10.601562 20.546875 -9.054688 20.546875 -7.171875 C 20.546875 -4.734375 19.65625 -2.820312 17.875 -1.4375 C 16.101562 -0.0507812 13.851562 0.640625 11.125 0.640625 C 7.15625 0.640625 4.160156 0.132812 2.140625 -0.875 L 2.140625 -7.65625 L 6.53125 -8 L 6.53125 -5.65625 C 6.53125 -4.226562 7.894531 -3.515625 10.625 -3.515625 C 13.363281 -3.515625 14.734375 -4.503906 14.734375 -6.484375 C 14.734375 -7.203125 14.5 -7.789062 14.03125 -8.25 C 13.5625 -8.707031 13.097656 -9.015625 12.640625 -9.171875 C 12.179688 -9.335938 11.632812 -9.5 11 -9.65625 C 10.363281 -9.820312 9.742188 -9.984375 9.140625 -10.140625 C 8.546875 -10.304688 7.894531 -10.523438 7.1875 -10.796875 C 6.488281 -11.078125 5.71875 -11.476562 4.875 -12 C 3.21875 -13.070312 2.390625 -14.867188 2.390625 -17.390625 C 2.390625 -19.910156 3.285156 -21.851562 5.078125 -23.21875 C 6.867188 -24.59375 9.117188 -25.28125 11.828125 -25.28125 C 14.546875 -25.28125 17.238281 -24.628906 19.90625 -23.328125 L 19.90625 -17.46875 L 15.515625 -17.125 L 15.515625 -19.171875 C 15.515625 -19.984375 15.140625 -20.539062 14.390625 -20.84375 Z M 14.390625 -20.84375 "/></g></g></g><g fill="#ffffff" fill-opacity="1"><g transform="translate(427.774967, 595.367271)"><g/></g></g><g fill="#ffffff" fill-opacity="1"><g transform="translate(439.239909, 595.367271)"><g><path d="M 1.5625 0 L 1.5625 -3.953125 L 3.171875 -4.09375 C 4.117188 -4.195312 4.59375 -4.65625 4.59375 -5.46875 L 4.59375 -28.15625 L 1.8125 -28.296875 L 1.8125 -32.453125 L 15.765625 -32.453125 C 19.410156 -32.453125 22.25 -31.597656 24.28125 -29.890625 C 26.3125 -28.179688 27.328125 -25.617188 27.328125 -22.203125 C 27.328125 -18.785156 26.171875 -16.125 23.859375 -14.21875 C 21.546875 -12.320312 18.488281 -11.375 14.6875 -11.375 L 10.546875 -11.375 L 10.546875 -4.296875 L 15.21875 -4.140625 L 15.21875 0 Z M 10.546875 -16.109375 L 14.046875 -16.109375 C 18.796875 -16.109375 21.171875 -18.039062 21.171875 -21.90625 C 21.171875 -24.25 20.5625 -25.800781 19.34375 -26.5625 C 18.125 -27.332031 16.179688 -27.71875 13.515625 -27.71875 L 10.546875 -27.71875 Z M 10.546875 -16.109375 "/></g></g></g><g fill="#ffffff" fill-opacity="1"><g transform="translate(469.731066, 595.367271)"><g><path d="M 12.828125 -3.5625 C 16.378906 -3.5625 18.15625 -6.425781 18.15625 -12.15625 C 18.15625 -15.050781 17.753906 -17.242188 16.953125 -18.734375 C 16.160156 -20.234375 14.828125 -20.984375 12.953125 -20.984375 C 11.085938 -20.984375 9.710938 -20.265625 8.828125 -18.828125 C 7.953125 -17.398438 7.515625 -15.453125 7.515625 -12.984375 C 7.515625 -8.390625 8.359375 -5.507812 10.046875 -4.34375 C 10.796875 -3.820312 11.722656 -3.5625 12.828125 -3.5625 Z M 1.609375 -12.296875 C 1.609375 -14.703125 1.960938 -16.789062 2.671875 -18.5625 C 3.390625 -20.34375 4.351562 -21.703125 5.5625 -22.640625 C 7.875 -24.398438 10.425781 -25.28125 13.21875 -25.28125 C 15.175781 -25.28125 16.828125 -24.960938 18.171875 -24.328125 C 19.523438 -23.691406 20.582031 -22.957031 21.34375 -22.125 C 22.113281 -21.300781 22.765625 -20.097656 23.296875 -18.515625 C 23.835938 -16.941406 24.109375 -15.082031 24.109375 -12.9375 C 24.109375 -8.445312 23.015625 -5.046875 20.828125 -2.734375 C 18.648438 -0.421875 15.863281 0.734375 12.46875 0.734375 C 9.070312 0.734375 6.410156 -0.363281 4.484375 -2.5625 C 2.566406 -4.757812 1.609375 -8.003906 1.609375 -12.296875 Z M 1.609375 -12.296875 "/></g></g></g><g fill="#ffffff" fill-opacity="1"><g transform="translate(497.197549, 595.367271)"><g><path d="M 13.859375 -25.28125 C 15.253906 -25.28125 16.585938 -25.082031 17.859375 -24.6875 L 17.859375 -29.625 C 17.859375 -30.332031 17.4375 -30.722656 16.59375 -30.796875 L 14.5 -30.9375 L 14.5 -34.796875 L 23.5625 -34.796875 L 23.5625 -5.125 C 23.601562 -4.375 24.007812 -4 24.78125 -4 L 26.5 -3.90625 L 26.5 0 L 18.59375 0 L 18.59375 -2.875 L 18.4375 -2.921875 C 16.976562 -0.546875 14.769531 0.640625 11.8125 0.640625 C 8.101562 0.640625 5.5 -0.597656 4 -3.078125 C 2.632812 -5.316406 1.953125 -8.066406 1.953125 -11.328125 C 1.953125 -15.554688 3 -18.9375 5.09375 -21.46875 C 7.195312 -24.007812 10.117188 -25.28125 13.859375 -25.28125 Z M 17.859375 -7.609375 L 17.859375 -20.25 C 16.691406 -20.769531 15.457031 -21.03125 14.15625 -21.03125 C 12.007812 -21.03125 10.4375 -20.164062 9.4375 -18.4375 C 8.445312 -16.71875 7.953125 -14.523438 7.953125 -11.859375 C 7.953125 -6.390625 9.707031 -3.65625 13.21875 -3.65625 C 14.550781 -3.65625 15.65625 -4.035156 16.53125 -4.796875 C 17.414062 -5.566406 17.859375 -6.503906 17.859375 -7.609375 Z M 17.859375 -7.609375 "/></g></g></g><g fill="#ffffff" fill-opacity="1"><g transform="translate(526.615409, 595.367271)"><g><path d="M 7.515625 -12.546875 C 7.515625 -9.773438 8.035156 -7.625 9.078125 -6.09375 C 10.117188 -4.570312 11.625 -3.8125 13.59375 -3.8125 C 15.5625 -3.8125 17.503906 -4.507812 19.421875 -5.90625 L 21.515625 -2.140625 C 19.210938 -0.253906 16.316406 0.6875 12.828125 0.6875 C 9.347656 0.6875 6.609375 -0.410156 4.609375 -2.609375 C 2.609375 -4.804688 1.609375 -8.050781 1.609375 -12.34375 C 1.609375 -16.632812 2.753906 -19.863281 5.046875 -22.03125 C 7.335938 -24.195312 9.921875 -25.28125 12.796875 -25.28125 C 15.679688 -25.28125 18.363281 -24.613281 20.84375 -23.28125 L 20.84375 -16.9375 L 16.34375 -16.59375 L 16.34375 -18.9375 C 16.34375 -19.8125 16.023438 -20.351562 15.390625 -20.5625 C 14.753906 -20.78125 14.097656 -20.890625 13.421875 -20.890625 C 9.484375 -20.890625 7.515625 -18.109375 7.515625 -12.546875 Z M 7.515625 -12.546875 "/></g></g></g><g fill="#ffffff" fill-opacity="1"><g transform="translate(551.301138, 595.367271)"><g><path d="M 23.515625 -23.5625 L 23.515625 -5.421875 C 23.515625 -4.898438 23.601562 -4.539062 23.78125 -4.34375 C 23.96875 -4.144531 24.285156 -4.03125 24.734375 -4 L 26.296875 -3.90625 L 26.296875 0 L 18.546875 0 L 18.546875 -2.828125 L 18.390625 -2.875 C 16.765625 -0.53125 14.539062 0.640625 11.71875 0.640625 C 8.394531 0.640625 5.9375 -0.414062 4.34375 -2.53125 C 2.75 -4.644531 1.953125 -7.539062 1.953125 -11.21875 C 1.953125 -15.644531 3.023438 -19.09375 5.171875 -21.5625 C 7.316406 -24.039062 10.535156 -25.28125 14.828125 -25.28125 C 17.597656 -25.28125 20.492188 -24.707031 23.515625 -23.5625 Z M 17.859375 -7.765625 L 17.859375 -20.390625 C 16.953125 -20.816406 15.703125 -21.03125 14.109375 -21.03125 C 11.921875 -21.03125 10.335938 -20.148438 9.359375 -18.390625 C 8.390625 -16.640625 7.90625 -14.316406 7.90625 -11.421875 C 7.90625 -6.148438 9.597656 -3.515625 12.984375 -3.515625 C 14.410156 -3.515625 15.578125 -3.941406 16.484375 -4.796875 C 17.398438 -5.660156 17.859375 -6.648438 17.859375 -7.765625 Z M 17.859375 -7.765625 "/></g></g></g><g fill="#ffffff" fill-opacity="1"><g transform="translate(580.670201, 595.367271)"><g><path d="M 14.390625 -20.84375 C 13.609375 -21.132812 12.664062 -21.28125 11.5625 -21.28125 C 10.457031 -21.28125 9.570312 -21.023438 8.90625 -20.515625 C 8.238281 -20.015625 7.90625 -19.394531 7.90625 -18.65625 C 7.90625 -17.925781 8.023438 -17.359375 8.265625 -16.953125 C 8.515625 -16.546875 8.898438 -16.195312 9.421875 -15.90625 C 10.234375 -15.476562 11.207031 -15.109375 12.34375 -14.796875 C 13.476562 -14.492188 14.320312 -14.253906 14.875 -14.078125 C 15.4375 -13.898438 16.128906 -13.597656 16.953125 -13.171875 C 17.785156 -12.753906 18.410156 -12.300781 18.828125 -11.8125 C 19.972656 -10.601562 20.546875 -9.054688 20.546875 -7.171875 C 20.546875 -4.734375 19.65625 -2.820312 17.875 -1.4375 C 16.101562 -0.0507812 13.851562 0.640625 11.125 0.640625 C 7.15625 0.640625 4.160156 0.132812 2.140625 -0.875 L 2.140625 -7.65625 L 6.53125 -8 L 6.53125 -5.65625 C 6.53125 -4.226562 7.894531 -3.515625 10.625 -3.515625 C 13.363281 -3.515625 14.734375 -4.503906 14.734375 -6.484375 C 14.734375 -7.203125 14.5 -7.789062 14.03125 -8.25 C 13.5625 -8.707031 13.097656 -9.015625 12.640625 -9.171875 C 12.179688 -9.335938 11.632812 -9.5 11 -9.65625 C 10.363281 -9.820312 9.742188 -9.984375 9.140625 -10.140625 C 8.546875 -10.304688 7.894531 -10.523438 7.1875 -10.796875 C 6.488281 -11.078125 5.71875 -11.476562 4.875 -12 C 3.21875 -13.070312 2.390625 -14.867188 2.390625 -17.390625 C 2.390625 -19.910156 3.285156 -21.851562 5.078125 -23.21875 C 6.867188 -24.59375 9.117188 -25.28125 11.828125 -25.28125 C 14.546875 -25.28125 17.238281 -24.628906 19.90625 -23.328125 L 19.90625 -17.46875 L 15.515625 -17.125 L 15.515625 -19.171875 C 15.515625 -19.984375 15.140625 -20.539062 14.390625 -20.84375 Z M 14.390625 -20.84375 "/></g></g></g><g fill="#ffffff" fill-opacity="1"><g transform="translate(604.380206, 595.367271)"><g><path d="M 7.03125 -29.71875 L 10.203125 -29.71875 L 10.203125 -24.546875 L 16.6875 -24.546875 L 16.203125 -20.453125 L 10.203125 -20.453125 L 10.203125 -7.609375 C 10.203125 -6.179688 10.460938 -5.179688 10.984375 -4.609375 C 11.503906 -4.035156 12.304688 -3.75 13.390625 -3.75 C 14.484375 -3.75 15.582031 -4.09375 16.6875 -4.78125 L 18.15625 -1.03125 C 16.53125 0.113281 14.460938 0.6875 11.953125 0.6875 C 10.492188 0.6875 9.257812 0.5 8.25 0.125 C 7.238281 -0.25 6.488281 -0.664062 6 -1.125 C 5.507812 -1.582031 5.132812 -2.25 4.875 -3.125 C 4.613281 -4 4.46875 -4.6875 4.4375 -5.1875 C 4.40625 -5.695312 4.390625 -6.441406 4.390625 -7.421875 L 4.390625 -20.453125 L 0.921875 -20.453125 L 1.421875 -24.015625 C 2.941406 -24.140625 4.09375 -24.679688 4.875 -25.640625 C 5.65625 -26.597656 6.375 -27.957031 7.03125 -29.71875 Z M 7.03125 -29.71875 "/></g></g></g><g fill="#ffffff" fill-opacity="1"><g transform="translate(624.48015, 595.367271)"><g><path d="M 14.390625 -20.84375 C 13.609375 -21.132812 12.664062 -21.28125 11.5625 -21.28125 C 10.457031 -21.28125 9.570312 -21.023438 8.90625 -20.515625 C 8.238281 -20.015625 7.90625 -19.394531 7.90625 -18.65625 C 7.90625 -17.925781 8.023438 -17.359375 8.265625 -16.953125 C 8.515625 -16.546875 8.898438 -16.195312 9.421875 -15.90625 C 10.234375 -15.476562 11.207031 -15.109375 12.34375 -14.796875 C 13.476562 -14.492188 14.320312 -14.253906 14.875 -14.078125 C 15.4375 -13.898438 16.128906 -13.597656 16.953125 -13.171875 C 17.785156 -12.753906 18.410156 -12.300781 18.828125 -11.8125 C 19.972656 -10.601562 20.546875 -9.054688 20.546875 -7.171875 C 20.546875 -4.734375 19.65625 -2.820312 17.875 -1.4375 C 16.101562 -0.0507812 13.851562 0.640625 11.125 0.640625 C 7.15625 0.640625 4.160156 0.132812 2.140625 -0.875 L 2.140625 -7.65625 L 6.53125 -8 L 6.53125 -5.65625 C 6.53125 -4.226562 7.894531 -3.515625 10.625 -3.515625 C 13.363281 -3.515625 14.734375 -4.503906 14.734375 -6.484375 C 14.734375 -7.203125 14.5 -7.789062 14.03125 -8.25 C 13.5625 -8.707031 13.097656 -9.015625 12.640625 -9.171875 C 12.179688 -9.335938 11.632812 -9.5 11 -9.65625 C 10.363281 -9.820312 9.742188 -9.984375 9.140625 -10.140625 C 8.546875 -10.304688 7.894531 -10.523438 7.1875 -10.796875 C 6.488281 -11.078125 5.71875 -11.476562 4.875 -12 C 3.21875 -13.070312 2.390625 -14.867188 2.390625 -17.390625 C 2.390625 -19.910156 3.285156 -21.851562 5.078125 -23.21875 C 6.867188 -24.59375 9.117188 -25.28125 11.828125 -25.28125 C 14.546875 -25.28125 17.238281 -24.628906 19.90625 -23.328125 L 19.90625 -17.46875 L 15.515625 -17.125 L 15.515625 -19.171875 C 15.515625 -19.984375 15.140625 -20.539062 14.390625 -20.84375 Z M 14.390625 -20.84375 "/></g></g></g><g fill="#ffffff" fill-opacity="1"><g transform="translate(648.190156, 595.367271)"><g/></g></g><g fill="#ffffff" fill-opacity="1"><g transform="translate(659.655121, 595.367271)"><g><path d="M 23.328125 -0.046875 C 23.035156 3.566406 21.992188 6.21875 20.203125 7.90625 C 18.410156 9.59375 15.609375 10.4375 11.796875 10.4375 C 7.992188 10.4375 5.019531 9.898438 2.875 8.828125 L 2.875 2.046875 L 7.515625 1.65625 L 7.515625 4 C 7.515625 4.875 7.921875 5.46875 8.734375 5.78125 C 9.546875 6.09375 10.671875 6.25 12.109375 6.25 C 14.179688 6.25 15.640625 5.617188 16.484375 4.359375 C 17.335938 3.109375 17.765625 1.347656 17.765625 -0.921875 L 17.765625 -3.609375 C 16.203125 -1.785156 14.035156 -0.875 11.265625 -0.875 C 9.578125 -0.875 8.085938 -1.195312 6.796875 -1.84375 C 5.515625 -2.5 4.519531 -3.378906 3.8125 -4.484375 C 2.40625 -6.703125 1.703125 -9.304688 1.703125 -12.296875 C 1.703125 -16.554688 2.859375 -19.785156 5.171875 -21.984375 C 7.484375 -24.179688 10.554688 -25.28125 14.390625 -25.28125 C 17.578125 -25.28125 20.585938 -24.675781 23.421875 -23.46875 L 23.421875 -5.375 C 23.421875 -2.601562 23.390625 -0.828125 23.328125 -0.046875 Z M 17.765625 -9.953125 L 17.765625 -20.453125 C 16.617188 -20.835938 15.316406 -21.03125 13.859375 -21.03125 C 11.867188 -21.03125 10.34375 -20.296875 9.28125 -18.828125 C 8.226562 -17.367188 7.703125 -15.382812 7.703125 -12.875 C 7.703125 -7.738281 9.394531 -5.171875 12.78125 -5.171875 C 14.1875 -5.171875 15.367188 -5.601562 16.328125 -6.46875 C 17.285156 -7.332031 17.765625 -8.492188 17.765625 -9.953125 Z M 17.765625 -9.953125 "/></g></g></g><g fill="#ffffff" fill-opacity="1"><g transform="translate(687.90216, 595.367271)"><g><path d="M 10.4375 -24.546875 L 10.4375 -4.046875 L 13.21875 -3.90625 L 13.21875 0 L 1.609375 0 L 1.609375 -3.703125 L 3.21875 -3.859375 C 4.164062 -3.953125 4.640625 -4.472656 4.640625 -5.421875 L 4.640625 -18.984375 C 4.640625 -19.535156 4.546875 -19.90625 4.359375 -20.09375 C 4.179688 -20.289062 3.867188 -20.390625 3.421875 -20.390625 L 1.703125 -20.5 L 1.703125 -24.546875 Z M 4.28125 -28.765625 C 3.601562 -29.429688 3.265625 -30.285156 3.265625 -31.328125 C 3.265625 -32.367188 3.601562 -33.238281 4.28125 -33.9375 C 4.96875 -34.632812 5.863281 -34.984375 6.96875 -34.984375 C 8.082031 -34.984375 8.988281 -34.632812 9.6875 -33.9375 C 10.382812 -33.238281 10.734375 -32.367188 10.734375 -31.328125 C 10.734375 -30.285156 10.382812 -29.429688 9.6875 -28.765625 C 8.988281 -28.097656 8.082031 -27.765625 6.96875 -27.765625 C 5.863281 -27.765625 4.96875 -28.097656 4.28125 -28.765625 Z M 4.28125 -28.765625 "/></g></g></g><g fill="#ffffff" fill-opacity="1"><g transform="translate(704.050459, 595.367271)"><g><path d="M 3.75 -1.46875 L 3.75 -29.46875 C 3.75 -30.21875 3.34375 -30.609375 2.53125 -30.640625 L 0.828125 -30.734375 L 0.828125 -34.796875 L 9.421875 -34.796875 L 9.421875 -23.234375 C 10.878906 -24.597656 12.847656 -25.28125 15.328125 -25.28125 C 18.378906 -25.28125 20.800781 -24.242188 22.59375 -22.171875 C 24.382812 -20.109375 25.28125 -17.207031 25.28125 -13.46875 C 25.28125 -4.0625 21.34375 0.640625 13.46875 0.640625 C 11.78125 0.640625 10 0.4375 8.125 0.03125 C 6.25 -0.375 4.789062 -0.875 3.75 -1.46875 Z M 9.421875 -17.28125 L 9.421875 -4.640625 C 10.648438 -3.984375 12.082031 -3.65625 13.71875 -3.65625 C 17.425781 -3.65625 19.28125 -6.664062 19.28125 -12.6875 C 19.28125 -18.1875 17.457031 -20.9375 13.8125 -20.9375 C 12.632812 -20.9375 11.609375 -20.59375 10.734375 -19.90625 C 9.859375 -19.226562 9.421875 -18.351562 9.421875 -17.28125 Z M 9.421875 -17.28125 "/></g></g></g><g fill="#ffffff" fill-opacity="1"><g transform="translate(732.882931, 595.367271)"><g><path d="M 7.03125 -29.71875 L 10.203125 -29.71875 L 10.203125 -24.546875 L 16.6875 -24.546875 L 16.203125 -20.453125 L 10.203125 -20.453125 L 10.203125 -7.609375 C 10.203125 -6.179688 10.460938 -5.179688 10.984375 -4.609375 C 11.503906 -4.035156 12.304688 -3.75 13.390625 -3.75 C 14.484375 -3.75 15.582031 -4.09375 16.6875 -4.78125 L 18.15625 -1.03125 C 16.53125 0.113281 14.460938 0.6875 11.953125 0.6875 C 10.492188 0.6875 9.257812 0.5 8.25 0.125 C 7.238281 -0.25 6.488281 -0.664062 6 -1.125 C 5.507812 -1.582031 5.132812 -2.25 4.875 -3.125 C 4.613281 -4 4.46875 -4.6875 4.4375 -5.1875 C 4.40625 -5.695312 4.390625 -6.441406 4.390625 -7.421875 L 4.390625 -20.453125 L 0.921875 -20.453125 L 1.421875 -24.015625 C 2.941406 -24.140625 4.09375 -24.679688 4.875 -25.640625 C 5.65625 -26.597656 6.375 -27.957031 7.03125 -29.71875 Z M 7.03125 -29.71875 "/></g></g></g><g fill="#ffffff" fill-opacity="1"><g transform="translate(752.98283, 595.367271)"><g><path d="M 5.515625 0.734375 C 4.378906 0.734375 3.5 0.414062 2.875 -0.21875 C 2.257812 -0.851562 1.953125 -1.679688 1.953125 -2.703125 C 1.953125 -3.734375 2.269531 -4.582031 2.90625 -5.25 C 3.539062 -5.914062 4.398438 -6.25 5.484375 -6.25 C 6.578125 -6.25 7.445312 -5.929688 8.09375 -5.296875 C 8.75 -4.660156 9.078125 -3.828125 9.078125 -2.796875 C 9.078125 -1.773438 8.765625 -0.929688 8.140625 -0.265625 C 7.523438 0.398438 6.648438 0.734375 5.515625 0.734375 Z M 5.515625 0.734375 "/></g></g></g><g transform="matrix(1, 0, 0, 1, 113, 46)"><g clip-path="url(#70db101f10)"><g fill="#ffffff" fill-opacity="1"><g transform="translate(1.375518, 490.953862)"><g><path d="M 99.34375 -51.03125 L 99.34375 -257.90625 L 63.796875 -257.90625 C 56.804688 -257.90625 53.3125 -253.195312 53.3125 -243.78125 L 53.3125 -222.375 L 6.828125 -225.5625 L 6.828125 -303.015625 L 245.15625 -303.015625 L 245.15625 -225.5625 L 198.671875 -222.375 L 198.671875 -243.78125 C 198.671875 -248.945312 197.910156 -252.59375 196.390625 -254.71875 C 194.867188 -256.84375 191.222656 -257.90625 185.453125 -257.90625 L 154.46875 -257.90625 L 154.46875 -40.09375 L 190.46875 -38.734375 L 190.46875 0 L 61.96875 0 L 61.96875 -36.90625 L 86.125 -38.28125 C 94.9375 -39.1875 99.34375 -43.4375 99.34375 -51.03125 Z M 99.34375 -51.03125 "/></g></g></g><g fill="#ffffff" fill-opacity="1"><g transform="translate(269.314752, 490.953862)"><g><path d="M 42.828125 -53.3125 L 42.828125 -262.921875 L 16.859375 -264.296875 L 16.859375 -303.015625 L 127.125 -303.015625 L 127.125 -266.109375 L 112.09375 -264.75 C 103.28125 -263.832031 98.875 -258.96875 98.875 -250.15625 L 98.875 -40.09375 L 124.859375 -38.734375 L 124.859375 0 L 14.578125 0 L 14.578125 -36.90625 L 29.625 -38.28125 C 34.175781 -38.882812 37.515625 -40.171875 39.640625 -42.140625 C 41.765625 -44.117188 42.828125 -47.84375 42.828125 -53.3125 Z M 42.828125 -53.3125 "/></g></g></g><g fill="#ffffff" fill-opacity="1"><g transform="translate(425.157026, 490.953862)"><g><path d="M 231.9375 0 L 15.5 0 L 15.5 -36.90625 L 30.53125 -38.28125 C 39.34375 -39.1875 43.75 -43.4375 43.75 -51.03125 L 43.75 -262.921875 L 17.765625 -264.296875 L 17.765625 -303.015625 L 226.46875 -303.015625 L 226.46875 -227.375 L 179.984375 -224.1875 L 179.984375 -242.421875 C 179.984375 -247.578125 179.222656 -251.21875 177.703125 -253.34375 C 176.191406 -255.476562 172.550781 -256.546875 166.78125 -256.546875 L 99.34375 -256.546875 L 99.34375 -178.625 L 204.59375 -178.625 L 204.59375 -132.140625 L 99.34375 -132.140625 L 99.34375 -46.9375 L 172.703125 -46.9375 C 178.171875 -46.9375 181.660156 -48.070312 183.171875 -50.34375 C 184.691406 -52.625 185.453125 -56.347656 185.453125 -61.515625 L 185.453125 -84.296875 L 231.9375 -81.109375 Z M 231.9375 0 "/></g></g></g><g fill="#ffffff" fill-opacity="1"><g transform="translate(691.273576, 490.953862)"><g><path d="M 14.578125 0 L 14.578125 -36.90625 L 29.625 -38.28125 C 38.425781 -39.1875 42.828125 -43.4375 42.828125 -51.03125 L 42.828125 -262.921875 L 16.859375 -264.296875 L 16.859375 -303.015625 L 141.265625 -303.015625 C 176.492188 -303.015625 203.523438 -296.484375 222.359375 -283.421875 C 241.203125 -270.359375 250.625 -248.941406 250.625 -219.171875 C 250.625 -198.515625 245.226562 -181.503906 234.4375 -168.140625 C 223.65625 -154.773438 210.820312 -145.054688 195.9375 -138.984375 C 206.875 -135.035156 215.53125 -125.769531 221.90625 -111.1875 L 254.71875 -39.640625 L 280.6875 -38.734375 L 280.6875 0 L 168.140625 0 L 168.140625 -36.90625 L 181.359375 -38.28125 C 188.347656 -39.1875 191.84375 -41.921875 191.84375 -46.484375 C 191.84375 -48.304688 191.234375 -50.429688 190.015625 -52.859375 L 168.59375 -98.421875 C 165.257812 -106.015625 161.539062 -111.40625 157.4375 -114.59375 C 153.332031 -117.789062 147.484375 -119.390625 139.890625 -119.390625 L 98.421875 -119.390625 L 98.421875 -40.09375 L 128.046875 -38.734375 L 128.046875 0 Z M 98.421875 -162.671875 L 138.0625 -162.671875 C 175.425781 -162.671875 194.109375 -179.378906 194.109375 -212.796875 C 194.109375 -231.929688 189.171875 -244.382812 179.296875 -250.15625 C 169.429688 -255.9375 153.5625 -258.828125 131.6875 -258.828125 L 98.421875 -258.828125 Z M 98.421875 -162.671875 "/></g></g></g><g fill="#ffffff" fill-opacity="1"><g transform="translate(992.477349, 490.953862)"><g><path d="M 42.828125 -53.3125 L 42.828125 -262.921875 L 16.859375 -264.296875 L 16.859375 -303.015625 L 127.125 -303.015625 L 127.125 -266.109375 L 112.09375 -264.75 C 103.28125 -263.832031 98.875 -258.96875 98.875 -250.15625 L 98.875 -40.09375 L 124.859375 -38.734375 L 124.859375 0 L 14.578125 0 L 14.578125 -36.90625 L 29.625 -38.28125 C 34.175781 -38.882812 37.515625 -40.171875 39.640625 -42.140625 C 41.765625 -44.117188 42.828125 -47.84375 42.828125 -53.3125 Z M 42.828125 -53.3125 "/></g></g></g><g fill="#ffffff" fill-opacity="1"><g transform="translate(1148.319623, 490.953862)"><g><path d="M 109.8125 -41.015625 C 146.269531 -41.015625 164.5 -55.59375 164.5 -84.75 C 164.5 -99.9375 156.445312 -111.175781 140.34375 -118.46875 C 131.84375 -122.726562 120.832031 -126.679688 107.3125 -130.328125 C 93.789062 -133.972656 82.550781 -137.691406 73.59375 -141.484375 C 64.632812 -145.285156 55.597656 -150.523438 46.484375 -157.203125 C 28.554688 -170.566406 19.59375 -191.144531 19.59375 -218.9375 C 19.59375 -246.738281 29.238281 -268.613281 48.53125 -284.5625 C 67.820312 -300.507812 93.035156 -308.484375 124.171875 -308.484375 C 155.304688 -308.484375 184.238281 -302.257812 210.96875 -289.8125 L 210.96875 -221.453125 L 164.5 -218.265625 L 164.5 -244.703125 C 164.5 -249.253906 163.890625 -252.59375 162.671875 -254.71875 C 159.328125 -260.488281 148.617188 -263.375 130.546875 -263.375 C 112.472656 -263.375 99.109375 -260.179688 90.453125 -253.796875 C 81.796875 -247.421875 77.46875 -237.550781 77.46875 -224.1875 C 77.46875 -214.46875 81.113281 -205.960938 88.40625 -198.671875 C 93.257812 -193.804688 100.46875 -189.78125 110.03125 -186.59375 C 119.601562 -183.40625 129.78125 -180.140625 140.5625 -176.796875 C 151.351562 -173.453125 160.925781 -169.804688 169.28125 -165.859375 C 177.632812 -161.910156 186.367188 -156.441406 195.484375 -149.453125 C 214.015625 -135.785156 223.28125 -114.671875 223.28125 -86.109375 C 223.28125 -57.554688 213.023438 -35.078125 192.515625 -18.671875 C 172.015625 -2.273438 144.976562 5.921875 111.40625 5.921875 C 77.84375 5.921875 47.691406 -0.304688 20.953125 -12.765625 L 20.953125 -84.75 L 67.4375 -87.9375 L 67.4375 -60.15625 C 67.4375 -55.59375 68.039062 -52.25 69.25 -50.125 C 70.46875 -48 74.191406 -45.945312 80.421875 -43.96875 C 86.648438 -42 96.445312 -41.015625 109.8125 -41.015625 Z M 109.8125 -41.015625 "/></g></g></g><g fill="#ffffff" fill-opacity="1"><g transform="translate(1402.132841, 490.953862)"><g><path d="M 198.671875 -254.71875 C 195.328125 -260.488281 182.875 -263.375 161.3125 -263.375 C 133.0625 -263.375 111.644531 -253.804688 97.0625 -234.671875 C 82.476562 -215.535156 75.1875 -187.890625 75.1875 -151.734375 C 75.1875 -76.703125 103.285156 -39.1875 159.484375 -39.1875 C 160.398438 -39.1875 164.425781 -39.1875 171.5625 -39.1875 C 178.695312 -39.1875 185.453125 -40.171875 191.828125 -42.140625 C 198.210938 -44.117188 202.007812 -46.171875 203.21875 -48.296875 C 204.4375 -50.421875 205.046875 -53.765625 205.046875 -58.328125 L 205.046875 -94.78125 L 251.53125 -91.59375 L 251.53125 -12.765625 C 227.832031 -0.304688 197.757812 5.921875 161.3125 5.921875 C 114.832031 5.921875 79.363281 -7.140625 54.90625 -33.265625 C 30.457031 -59.390625 18.234375 -98.273438 18.234375 -149.921875 C 18.234375 -178.472656 22.332031 -203.378906 30.53125 -224.640625 C 38.726562 -245.910156 49.816406 -262.46875 63.796875 -274.3125 C 91.128906 -297.09375 123.632812 -308.484375 161.3125 -308.484375 C 191.6875 -308.484375 220.238281 -302.257812 246.96875 -289.8125 L 246.96875 -212.34375 L 200.5 -209.15625 L 200.5 -244.703125 C 200.5 -249.253906 199.890625 -252.59375 198.671875 -254.71875 Z M 198.671875 -254.71875 "/></g></g></g><g fill="#ffffff" fill-opacity="1"><g transform="translate(1692.400474, 490.953862)"><g><path d="M 227.375 -53.3125 L 227.375 -132.140625 L 98.421875 -132.140625 L 98.421875 -40.09375 L 124.859375 -38.734375 L 124.859375 0 L 14.578125 0 L 14.578125 -36.90625 L 29.625 -38.28125 C 38.425781 -39.1875 42.828125 -43.4375 42.828125 -51.03125 L 42.828125 -262.921875 L 16.859375 -264.296875 L 16.859375 -303.015625 L 127.125 -303.015625 L 127.125 -266.109375 L 112.09375 -264.75 C 107.226562 -264.132812 103.734375 -262.835938 101.609375 -260.859375 C 99.484375 -258.890625 98.421875 -255.171875 98.421875 -249.703125 L 98.421875 -179.078125 L 227.375 -179.078125 L 227.375 -262.921875 L 201.40625 -264.296875 L 201.40625 -303.015625 L 311.671875 -303.015625 L 311.671875 -266.109375 L 296.640625 -264.75 C 287.828125 -263.832031 283.421875 -258.96875 283.421875 -250.15625 L 283.421875 -40.09375 L 309.40625 -38.734375 L 309.40625 0 L 199.125 0 L 199.125 -36.90625 L 214.171875 -38.28125 C 218.722656 -38.882812 222.0625 -40.171875 224.1875 -42.140625 C 226.3125 -44.117188 227.375 -47.84375 227.375 -53.3125 Z M 227.375 -53.3125 "/></g></g></g></g></g><g transform="matrix(1, 0, 0, 1, 254, 12)"><g clip-path="url(#a68d64fa04)"><g fill="#ffffff" fill-opacity="1"><g transform="translate(1.219175, 181.724351)"><g><path d="M 40.65625 -15.1875 C 54.144531 -15.1875 60.890625 -20.582031 60.890625 -31.375 C 60.890625 -37 57.910156 -41.160156 51.953125 -43.859375 C 48.804688 -45.429688 44.726562 -46.890625 39.71875 -48.234375 C 34.71875 -49.585938 30.554688 -50.96875 27.234375 -52.375 C 23.921875 -53.78125 20.578125 -55.722656 17.203125 -58.203125 C 10.566406 -63.148438 7.25 -70.765625 7.25 -81.046875 C 7.25 -91.335938 10.816406 -99.4375 17.953125 -105.34375 C 25.097656 -111.25 34.4375 -114.203125 45.96875 -114.203125 C 57.5 -114.203125 68.210938 -111.894531 78.109375 -107.28125 L 78.109375 -81.984375 L 60.890625 -80.796875 L 60.890625 -90.578125 C 60.890625 -92.265625 60.664062 -93.503906 60.21875 -94.296875 C 58.976562 -96.429688 55.015625 -97.5 48.328125 -97.5 C 41.640625 -97.5 36.691406 -96.316406 33.484375 -93.953125 C 30.273438 -91.597656 28.671875 -87.945312 28.671875 -83 C 28.671875 -79.394531 30.019531 -76.242188 32.71875 -73.546875 C 34.519531 -71.742188 37.191406 -70.253906 40.734375 -69.078125 C 44.273438 -67.898438 48.039062 -66.691406 52.03125 -65.453125 C 56.03125 -64.210938 59.578125 -62.859375 62.671875 -61.390625 C 65.765625 -59.929688 68.992188 -57.910156 72.359375 -55.328125 C 79.222656 -50.265625 82.65625 -42.445312 82.65625 -31.875 C 82.65625 -21.3125 78.859375 -12.992188 71.265625 -6.921875 C 63.679688 -0.847656 53.675781 2.1875 41.25 2.1875 C 28.820312 2.1875 17.660156 -0.113281 7.765625 -4.71875 L 7.765625 -31.375 L 24.96875 -32.5625 L 24.96875 -22.265625 C 24.96875 -20.578125 25.191406 -19.335938 25.640625 -18.546875 C 26.085938 -17.765625 27.460938 -17.007812 29.765625 -16.28125 C 32.078125 -15.550781 35.707031 -15.1875 40.65625 -15.1875 Z M 40.65625 -15.1875 "/></g></g></g><g fill="#ffffff" fill-opacity="1"><g transform="translate(95.174883, 181.724351)"><g><path d="M 25.984375 -43.359375 C 25.984375 -33.796875 27.78125 -26.367188 31.375 -21.078125 C 34.976562 -15.796875 40.179688 -13.15625 46.984375 -13.15625 C 53.785156 -13.15625 60.503906 -15.570312 67.140625 -20.40625 L 74.390625 -7.421875 C 66.410156 -0.898438 56.398438 2.359375 44.359375 2.359375 C 32.328125 2.359375 22.851562 -1.429688 15.9375 -9.015625 C 9.019531 -16.609375 5.5625 -27.828125 5.5625 -42.671875 C 5.5625 -57.515625 9.523438 -68.675781 17.453125 -76.15625 C 25.390625 -83.632812 34.332031 -87.375 44.28125 -87.375 C 54.226562 -87.375 63.476562 -85.070312 72.03125 -80.46875 L 72.03125 -58.53125 L 56.515625 -57.359375 L 56.515625 -65.453125 C 56.515625 -68.484375 55.414062 -70.363281 53.21875 -71.09375 C 51.03125 -71.832031 48.753906 -72.203125 46.390625 -72.203125 C 32.785156 -72.203125 25.984375 -62.585938 25.984375 -43.359375 Z M 25.984375 -43.359375 "/></g></g></g><g fill="#ffffff" fill-opacity="1"><g transform="translate(180.527835, 181.724351)"><g><path d="M 15.859375 -18.890625 L 15.859375 -101.046875 C 15.859375 -102.847656 15.546875 -104.082031 14.921875 -104.75 C 14.304688 -105.425781 13.210938 -105.820312 11.640625 -105.9375 L 5.734375 -106.265625 L 5.734375 -120.28125 L 35.765625 -120.28125 L 35.765625 -74.890625 C 41.609375 -83.210938 49.816406 -87.375 60.390625 -87.375 C 68.929688 -87.375 75.535156 -84.925781 80.203125 -80.03125 C 84.878906 -75.144531 87.21875 -67.8125 87.21875 -58.03125 L 87.21875 -14 L 96.828125 -13.5 L 96.828125 0 L 56.671875 0 L 56.671875 -12.8125 L 62.25 -13.328125 C 63.9375 -13.546875 65.171875 -14.019531 65.953125 -14.75 C 66.742188 -15.488281 67.140625 -16.867188 67.140625 -18.890625 L 67.140625 -53.640625 C 67.140625 -59.492188 66.210938 -63.992188 64.359375 -67.140625 C 62.503906 -70.285156 58.90625 -71.859375 53.5625 -71.859375 C 48.21875 -71.859375 43.941406 -70.195312 40.734375 -66.875 C 37.535156 -63.5625 35.9375 -59.546875 35.9375 -54.828125 L 35.9375 -14 L 45.546875 -13.5 L 45.546875 0 L 5.390625 0 L 5.390625 -12.8125 L 10.96875 -13.328125 C 12.65625 -13.546875 13.890625 -14.019531 14.671875 -14.75 C 15.460938 -15.488281 15.859375 -16.867188 15.859375 -18.890625 Z M 15.859375 -18.890625 "/></g></g></g><g fill="#ffffff" fill-opacity="1"><g transform="translate(287.6407, 181.724351)"><g><path d="M 4.546875 -71.359375 L 4.546875 -84.84375 L 33.0625 -84.84375 L 33.0625 -73.890625 C 35.988281 -78.046875 39.867188 -81.332031 44.703125 -83.75 C 49.535156 -86.164062 54.765625 -87.375 60.390625 -87.375 C 68.929688 -87.375 75.535156 -84.925781 80.203125 -80.03125 C 84.878906 -75.144531 87.21875 -67.8125 87.21875 -58.03125 L 87.21875 -14 L 96.828125 -13.5 L 96.828125 0 L 56.671875 0 L 56.671875 -12.8125 L 62.25 -13.328125 C 63.9375 -13.546875 65.171875 -14.019531 65.953125 -14.75 C 66.742188 -15.488281 67.140625 -16.867188 67.140625 -18.890625 L 67.140625 -53.640625 C 67.140625 -59.828125 66.179688 -64.410156 64.265625 -67.390625 C 62.359375 -70.367188 58.734375 -71.859375 53.390625 -71.859375 C 48.046875 -71.859375 43.800781 -70.171875 40.65625 -66.796875 C 37.507812 -63.421875 35.9375 -59.429688 35.9375 -54.828125 L 35.9375 -14 L 45.546875 -13.5 L 45.546875 0 L 5.390625 0 L 5.390625 -12.8125 L 10.96875 -13.328125 C 12.65625 -13.546875 13.890625 -14.019531 14.671875 -14.75 C 15.460938 -15.488281 15.859375 -16.867188 15.859375 -18.890625 L 15.859375 -65.625 C 15.859375 -69 14.453125 -70.738281 11.640625 -70.84375 Z M 4.546875 -71.359375 "/></g></g></g><g fill="#ffffff" fill-opacity="1"><g transform="translate(394.753564, 181.724351)"><g><path d="M 81.3125 -81.46875 L 81.3125 -18.71875 C 81.3125 -16.925781 81.617188 -15.691406 82.234375 -15.015625 C 82.847656 -14.335938 83.945312 -13.941406 85.53125 -13.828125 L 90.921875 -13.5 L 90.921875 0 L 64.09375 0 L 64.09375 -9.78125 L 63.59375 -9.953125 C 57.96875 -1.859375 50.265625 2.1875 40.484375 2.1875 C 29.015625 2.1875 20.523438 -1.460938 15.015625 -8.765625 C 9.503906 -16.078125 6.75 -26.085938 6.75 -38.796875 C 6.75 -54.085938 10.457031 -66.003906 17.875 -74.546875 C 25.300781 -83.097656 36.4375 -87.375 51.28125 -87.375 C 60.84375 -87.375 70.851562 -85.40625 81.3125 -81.46875 Z M 61.734375 -26.828125 L 61.734375 -70.515625 C 58.585938 -71.972656 54.257812 -72.703125 48.75 -72.703125 C 41.21875 -72.703125 35.765625 -69.664062 32.390625 -63.59375 C 29.015625 -57.519531 27.328125 -49.476562 27.328125 -39.46875 C 27.328125 -21.25 33.175781 -12.140625 44.875 -12.140625 C 49.820312 -12.140625 53.867188 -13.628906 57.015625 -16.609375 C 60.160156 -19.597656 61.734375 -23.003906 61.734375 -26.828125 Z M 61.734375 -26.828125 "/></g></g></g><g fill="#ffffff" fill-opacity="1"><g transform="translate(496.299941, 181.724351)"><g><path d="M 94.96875 -13.328125 L 94.96875 0 L 67.640625 0 L 67.640625 -10.96875 C 61.453125 -2.195312 52.34375 2.1875 40.3125 2.1875 C 22.882812 2.1875 14.171875 -7.535156 14.171875 -26.984375 L 14.171875 -65.953125 C 14.171875 -68.992188 12.765625 -70.570312 9.953125 -70.6875 L 4.546875 -71.015625 L 4.546875 -84.84375 L 34.25 -84.84375 L 34.25 -31.375 C 34.25 -25.414062 35.085938 -20.914062 36.765625 -17.875 C 38.453125 -14.84375 41.9375 -13.328125 47.21875 -13.328125 C 52.507812 -13.328125 56.757812 -14.957031 59.96875 -18.21875 C 63.175781 -21.476562 64.78125 -25.414062 64.78125 -30.03125 L 64.78125 -65.625 C 64.78125 -67.414062 64.46875 -68.675781 63.84375 -69.40625 C 63.226562 -70.144531 62.132812 -70.570312 60.5625 -70.6875 L 55.15625 -71.015625 L 55.15625 -84.84375 L 84.84375 -84.84375 L 84.84375 -18.71875 C 84.84375 -16.925781 85.125 -15.71875 85.6875 -15.09375 C 86.25 -14.476562 87.375 -14.054688 89.0625 -13.828125 Z M 94.96875 -13.328125 "/></g></g></g><g fill="#ffffff" fill-opacity="1"><g transform="translate(601.894662, 181.724351)"><g><path d="M 75.578125 0 L 6.75 0 L 6.75 -12.8125 L 50.09375 -69.84375 L 28.84375 -69.84375 C 26.476562 -69.84375 24.988281 -69.390625 24.375 -68.484375 C 23.757812 -67.585938 23.453125 -66.125 23.453125 -64.09375 L 23.453125 -58.203125 L 7.59375 -59.375 L 7.59375 -84.84375 L 74.734375 -84.84375 L 74.734375 -73.375 L 30.875 -15.1875 L 54.828125 -15.1875 C 58.085938 -15.1875 59.71875 -17.097656 59.71875 -20.921875 L 59.71875 -28 L 75.578125 -26.828125 Z M 75.578125 0 "/></g></g></g><g fill="#ffffff" fill-opacity="1"><g transform="translate(689.271817, 181.724351)"><g><path d="M 47.90625 -87.375 C 56.34375 -87.375 63.035156 -85.320312 67.984375 -81.21875 C 72.929688 -77.113281 75.40625 -71.351562 75.40625 -63.9375 C 75.40625 -58.988281 74.335938 -54.628906 72.203125 -50.859375 C 70.066406 -47.085938 67.421875 -44.132812 64.265625 -42 C 61.117188 -39.863281 57.296875 -38.125 52.796875 -36.78125 C 45.265625 -34.53125 36.773438 -33.40625 27.328125 -33.40625 C 27.660156 -27.4375 29.515625 -22.625 32.890625 -18.96875 C 36.265625 -15.320312 41.4375 -13.5 48.40625 -13.5 C 55.382812 -13.5 62.359375 -15.972656 69.328125 -20.921875 L 75.734375 -7.25 C 73.484375 -5.226562 69.6875 -3.148438 64.34375 -1.015625 C 59.007812 1.117188 52.910156 2.1875 46.046875 2.1875 C 32.328125 2.1875 22.257812 -1.601562 15.84375 -9.1875 C 9.4375 -16.78125 6.234375 -27.210938 6.234375 -40.484375 C 6.234375 -53.753906 9.890625 -64.882812 17.203125 -73.875 C 24.515625 -82.875 34.75 -87.375 47.90625 -87.375 Z M 40.234375 -48.828125 C 44.335938 -49.566406 48.128906 -51.195312 51.609375 -53.71875 C 55.097656 -56.25 56.84375 -59.257812 56.84375 -62.75 C 56.84375 -69.613281 53.46875 -73.046875 46.71875 -73.046875 C 40.425781 -73.046875 35.59375 -70.539062 32.21875 -65.53125 C 28.84375 -60.53125 26.988281 -54.539062 26.65625 -47.5625 C 31.601562 -47.675781 36.128906 -48.097656 40.234375 -48.828125 Z M 40.234375 -48.828125 "/></g></g></g></g></g></svg>