<svg xmlns="http://www.w3.org/2000/svg" xmlns:xlink="http://www.w3.org/1999/xlink" width="1080" zoomAndPan="magnify" viewBox="0 0 810 809.999993" height="1080" preserveAspectRatio="xMidYMid meet" version="1.0"><path fill="#ffffff" d="M 733.714844 249.875 C 733.625 249.503906 731.457031 242.472656 729.914062 240.417969 C 728.597656 238.628906 728.046875 236.4375 726.878906 234.566406 C 723.996094 229.871094 723.949219 227.023438 722.492188 224.179688 C 721.523438 222.308594 721.394531 220.167969 721.289062 218.101562 C 720.914062 215.183594 720.152344 212.328125 719.8125 209.40625 C 719.230469 203.960938 717.820312 202.992188 719.460938 199.804688 C 719.738281 200.261719 720.015625 200.71875 720.316406 201.164062 C 720.378906 200.808594 720.449219 200.453125 720.523438 200.097656 C 720.765625 200.125 721.019531 200.148438 721.28125 200.175781 C 721.386719 199.097656 721.464844 197.960938 720.847656 197.011719 C 720.261719 196.253906 720.914062 195.390625 720.792969 194.558594 C 720.546875 192.785156 720.003906 191.046875 719.078125 189.507812 C 719.332031 188.367188 718.65625 187.277344 718.863281 186.15625 C 719.507812 186.375 720.132812 187.078125 720.867188 186.753906 C 720.410156 186.097656 719.777344 185.570312 719.394531 184.867188 C 719.3125 184.390625 719.328125 183.902344 719.308594 183.421875 C 719.84375 183.445312 720.386719 183.46875 720.9375 183.492188 C 720.203125 183.105469 719.484375 182.695312 718.785156 182.261719 C 718.902344 182.074219 719.136719 181.695312 719.253906 181.507812 C 720.269531 182.191406 721.394531 182.820312 722.671875 182.71875 C 721.730469 182.097656 720.574219 181.714844 719.976562 180.691406 C 721.425781 180.902344 722.683594 181.707031 724.0625 182.15625 C 722.140625 180.40625 719.253906 179.625 718.0625 177.152344 C 719.898438 177.839844 721.816406 178.84375 723.832031 178.390625 C 721.6875 177.453125 719.042969 177.359375 717.394531 175.511719 C 718.136719 175.449219 718.886719 175.382812 719.636719 175.332031 C 718.886719 175.011719 718.085938 174.832031 717.273438 174.859375 C 716.941406 174.359375 716.605469 173.867188 716.289062 173.363281 C 717.582031 173.4375 718.839844 173.785156 720.007812 174.339844 C 719.492188 173.265625 718.300781 172.867188 717.546875 172.019531 C 716.160156 170.496094 715.554688 168.53125 710.410156 166.875 C 709.929688 166.699219 709.992188 166.074219 709.828125 165.683594 C 711.21875 165.972656 712.648438 166.121094 714.074219 165.964844 C 713.902344 165.785156 713.554688 165.421875 713.378906 165.238281 C 712.183594 165.09375 710.835938 165.316406 709.863281 164.433594 C 710.429688 163.996094 711.089844 164.425781 711.699219 164.535156 C 712.238281 164.699219 712.808594 164.59375 713.367188 164.546875 C 712.148438 163.890625 710.648438 163.714844 709.683594 162.660156 C 709.269531 162.210938 708.71875 161.953125 708.183594 161.695312 C 707.644531 161.492188 707.445312 160.90625 707.089844 160.511719 C 706.523438 159.746094 705.347656 159.65625 705.003906 158.707031 C 702.574219 153.738281 700.917969 152.941406 700.066406 152.339844 C 702.402344 149.910156 706.621094 149.015625 705.550781 133.46875 C 705.035156 125.984375 703.039062 121.648438 700.945312 118.640625 C 699.304688 116.285156 696.125 118.941406 694.679688 121.316406 C 692.601562 124.738281 692.496094 129 689.578125 131.867188 C 683.519531 137.816406 686.101562 137.550781 684.078125 136.664062 C 678.894531 132.546875 668.484375 134.183594 665.316406 137.714844 C 664.785156 138.277344 664.835938 139.085938 664.601562 139.773438 C 664.335938 140.042969 664.027344 140.261719 663.75 140.496094 C 662.707031 133.730469 659.472656 133.328125 661.496094 124.632812 C 661.890625 122.914062 664.871094 121.425781 660.144531 119.996094 C 658.078125 119.371094 645.328125 127.648438 642.828125 147.785156 C 640.195312 148.320312 639.757812 147.203125 638.558594 147.933594 C 634.171875 149.996094 634.792969 148.972656 629.886719 150.34375 C 628.78125 150.511719 627.625 150.230469 626.558594 150.636719 C 622.757812 151.996094 621.523438 152.089844 618.734375 154.398438 C 617.703125 155.234375 611.207031 159.234375 608.234375 162.777344 C 606.886719 164.425781 604.964844 165.417969 603.355469 166.773438 C 602.109375 167.726562 601.082031 168.933594 599.789062 169.816406 C 598.730469 169.933594 597.644531 169.789062 596.597656 170.042969 C 594.015625 170.503906 583.59375 179.9375 583.328125 180.3125 C 579.292969 186.023438 578.847656 184.640625 577.339844 185.429688 C 576.261719 186.003906 575.433594 186.945312 574.320312 187.449219 C 573.683594 187.785156 572.945312 187.542969 572.28125 187.683594 C 563.28125 191.027344 565.136719 189.0625 560.886719 193.125 C 560.375 193.691406 552.988281 201.171875 551.96875 202.511719 C 551.050781 203.578125 550.527344 204.988281 549.335938 205.800781 C 548.734375 205.980469 548.082031 205.90625 547.511719 206.167969 C 542.78125 208.21875 540.828125 210.375 538.15625 213.417969 C 536.300781 215.0625 534.378906 216.699219 533.035156 218.8125 C 532.382812 219.644531 531.992188 220.886719 530.832031 221.113281 C 525.59375 222.441406 523.109375 226.441406 521.917969 227.289062 C 521.472656 227.367188 518.816406 226.867188 514.5625 230.613281 C 513.074219 231.898438 511.515625 233.121094 510.246094 234.628906 C 509.292969 235.761719 509.441406 236.730469 508.199219 237.765625 C 504.433594 240.917969 504.3125 238.457031 499.890625 243.972656 C 494.839844 243.820312 483.265625 248.601562 481.816406 249.75 C 479.890625 251.070312 478.84375 253.253906 477.070312 254.726562 C 476.695312 255.039062 470.636719 260.011719 468.3125 261.304688 C 467.121094 261.96875 457.6875 273.238281 453.957031 274.1875 C 438.1875 278.214844 423.046875 315.972656 282.929688 279.65625 C 278.738281 278.566406 282.609375 278.140625 273.980469 276.144531 C 273 275.917969 266.207031 274.351562 263.785156 273.75 C 235.554688 266.738281 217.394531 269.476562 213.46875 273.023438 C 209.511719 273.917969 186.96875 284.027344 184.757812 284.515625 C 176.789062 286.445312 165.789062 292.957031 154.488281 299.09375 C 154.117188 299.179688 147.601562 300.042969 139.316406 304.59375 C 139.59375 304.8125 139.984375 304.964844 140.074219 305.351562 C 138.972656 305.636719 137.761719 305.605469 136.8125 306.308594 C 135.796875 306.996094 134.660156 307.519531 133.410156 307.535156 C 133.347656 307.773438 133.28125 308.011719 133.21875 308.253906 C 130.195312 309.328125 127.34375 310.949219 124.636719 312.691406 C 125.171875 312.785156 125.714844 312.871094 126.253906 312.96875 C 122.769531 314.53125 122.3125 314.84375 119.765625 317.800781 C 120.773438 317.605469 121.734375 317.25 122.722656 316.992188 C 119.75 320.613281 114.90625 319.058594 110.117188 327.566406 C 111.390625 325.683594 113.023438 323.683594 115.40625 323.3125 C 113.65625 327.097656 110.148438 326.941406 107.894531 333.136719 C 109.207031 331.007812 110.6875 328.820312 112.855469 327.492188 C 112.039062 330.03125 107.410156 333.195312 105.25 340.144531 C 106.410156 337.050781 108.441406 334.410156 110.703125 332.046875 C 110.105469 334.546875 107.867188 336.28125 107.484375 338.851562 C 108.542969 337.660156 109.523438 336.386719 110.28125 334.984375 C 110.558594 334.464844 110.914062 333.992188 111.355469 333.609375 C 110.953125 335.296875 109.496094 336.394531 108.703125 337.878906 C 103.90625 346.566406 106.660156 345.25 100.402344 355.914062 C 98.402344 359.285156 100.828125 358.765625 96.835938 362.480469 C 97.085938 362.492188 97.585938 362.519531 97.832031 362.535156 C 96.652344 363.8125 95.171875 364.785156 93.535156 365.375 C 95.082031 365.03125 96.503906 364.335938 97.890625 363.59375 C 97.75 364.023438 97.605469 364.457031 97.460938 364.890625 C 98.121094 364.46875 98.792969 364.054688 99.492188 363.699219 C 99.296875 364.964844 98.226562 365.761719 97.664062 366.851562 C 98.238281 366.597656 98.78125 366.292969 99.328125 365.992188 C 97.605469 369.226562 93.300781 373.160156 89.085938 374.785156 C 93.582031 373.917969 93.492188 372.800781 95.902344 371.503906 C 94.882812 374.164062 92.574219 376.078125 91.5 378.707031 C 93.675781 376.851562 98.082031 369.59375 98.9375 368.605469 C 97.207031 373.707031 94.105469 376.207031 93.035156 378.246094 C 91.914062 381.027344 90.683594 383.851562 90.632812 386.910156 C 91.832031 385.371094 91.40625 383.648438 92.890625 380.804688 C 93.078125 388.375 84.460938 398.621094 81.007812 405.851562 C 81.15625 405.605469 89.617188 392.953125 90.054688 392.570312 C 89.859375 393.515625 89.527344 394.425781 89.277344 395.359375 C 89.585938 395.09375 89.890625 394.828125 90.199219 394.566406 C 84.964844 407.042969 81.355469 406.421875 81.625 410.410156 C 82.074219 409.714844 82.46875 408.984375 82.925781 408.296875 C 82.847656 409.722656 81.839844 410.90625 81.894531 412.351562 C 84.492188 408.859375 84.1875 407.230469 89.265625 399.757812 C 89.152344 400.128906 86.164062 410.652344 84.503906 412.453125 C 83.363281 413.742188 82.425781 415.382812 82.570312 417.167969 C 83.371094 416.039062 83.636719 414.621094 84.535156 413.546875 C 84.472656 415.691406 83.867188 417.855469 84.4375 419.984375 C 84.660156 421.15625 85.394531 422.191406 85.558594 423.371094 C 85.058594 425.789062 83.320312 427.863281 83.300781 430.398438 C 83.738281 429.636719 84.101562 428.832031 84.476562 428.039062 C 84.46875 431.855469 84.25 435.808594 85.710938 439.425781 C 86.027344 439.660156 86.414062 439.835938 86.640625 440.175781 C 87.179688 442.746094 86.027344 445.234375 86.144531 447.796875 C 86.171875 450.757812 83.824219 455.554688 85.761719 459.058594 C 86.070312 456.839844 84.894531 456.585938 86.605469 450.191406 C 87.0625 452.972656 87.90625 455.785156 87.363281 458.617188 C 87.097656 461.242188 85.9375 463.707031 85.851562 466.359375 L 85.617188 466.386719 C 85.65625 464.621094 85.363281 462.765625 86.234375 461.144531 C 85.949219 461.292969 85.664062 461.445312 85.382812 461.605469 C 84.679688 464.832031 85.285156 468.152344 84.800781 471.398438 C 84.660156 472.679688 85.527344 473.902344 85.097656 475.175781 C 84.832031 476.300781 85.117188 477.453125 85.070312 478.597656 C 85.007812 481.585938 83.847656 481.886719 85 485.128906 C 85.089844 483.636719 84.863281 482.085938 85.53125 480.691406 C 86.785156 486.824219 82.46875 490.355469 85.511719 502.464844 C 85.933594 504.019531 84.449219 505.488281 83.988281 510.234375 C 83.988281 510.234375 84.148438 512.125 84.128906 518.058594 C 84.054688 517.382812 83.949219 516.714844 83.886719 516.042969 C 84.179688 523.402344 84.597656 524.03125 85.308594 524.667969 C 85.195312 522.339844 84.554688 520.050781 84.761719 517.699219 C 86.292969 521.589844 85.304688 522.695312 86.808594 527.757812 C 88.191406 532.289062 86.980469 531.078125 87.71875 535.210938 C 88.019531 537.003906 87.371094 538.757812 87.203125 540.53125 C 87.117188 541.007812 86.46875 546.519531 86.929688 550.765625 C 87.597656 561.703125 88.285156 551.628906 85.753906 568.238281 C 85.429688 570.082031 85.570312 571.964844 85.671875 573.828125 C 86.109375 569.671875 87.636719 560.8125 88.03125 559.304688 C 88.582031 561.582031 88.160156 560.054688 88.050781 569.085938 C 88.050781 571.539062 89.082031 573.855469 89.214844 576.292969 C 88.808594 579.578125 84.664062 590.214844 84.675781 594.332031 C 84.617188 595.402344 84.828125 596.476562 84.773438 597.554688 C 83.621094 599.148438 82.367188 600.679688 81.351562 602.378906 C 82.703125 600.949219 83.96875 599.441406 85.402344 598.101562 C 88.691406 604.714844 87.136719 603.957031 87.253906 606.257812 C 87.199219 608.375 88.285156 610.253906 88.960938 612.191406 C 89.441406 614.425781 89.734375 616.757812 90.894531 618.773438 C 90.597656 617.789062 90.234375 616.808594 90.261719 615.769531 C 94.914062 620.277344 91.519531 618.671875 89.054688 625.730469 C 90.609375 624.210938 91.457031 622.160156 92.703125 620.410156 C 93.265625 621.042969 93.789062 621.710938 94.328125 622.367188 C 94.035156 621.066406 93.121094 619.648438 93.902344 618.351562 C 95.378906 615.800781 96.632812 613.128906 98.265625 610.667969 C 98.714844 612.160156 98.785156 613.929688 100.054688 615.015625 C 99.519531 613.019531 98.984375 611 99.074219 608.910156 C 99.847656 610.242188 99.972656 611.9375 101.214844 612.980469 C 100.261719 609.539062 99.242188 608.558594 100.945312 603.796875 C 102.660156 606.097656 103.109375 614.726562 105.375 616.585938 C 105.320312 613.617188 103.632812 614.6875 104.265625 607.023438 C 105.609375 608.742188 104.726562 609.027344 105.050781 612.484375 C 105.390625 611.480469 105.527344 610.425781 105.6875 609.390625 C 107.230469 611.863281 108.246094 614.632812 109.703125 617.164062 C 108.652344 614.96875 108.152344 612.558594 107.089844 610.367188 C 106.242188 608.390625 105.179688 607.714844 104.910156 602.003906 C 106.152344 603.988281 106.148438 606.480469 107.496094 608.417969 C 107.578125 606.679688 106.035156 602.789062 105.390625 601.199219 C 104.949219 600.203125 105.875 599.324219 106.292969 598.496094 C 106.839844 599.539062 107.066406 600.730469 107.765625 601.691406 C 108.050781 602.183594 108.5 602.628906 108.574219 603.21875 C 108.460938 604.511719 107.941406 605.78125 108.164062 607.101562 C 108.46875 608.710938 107.972656 610.546875 109.179688 611.886719 C 109.1875 609.269531 108.363281 606.566406 109.265625 604.015625 C 111.027344 606.328125 112.765625 608.65625 114.578125 610.925781 C 113.480469 608.921875 112.203125 607.023438 110.941406 605.117188 C 111.058594 605.027344 111.296875 604.847656 111.414062 604.753906 C 110.816406 603.628906 110.035156 602.53125 109.816406 601.261719 C 110.488281 598.753906 111.3125 596.277344 112.460938 593.941406 C 113.871094 595.851562 111.945312 598.074219 112.667969 600.121094 C 113.296875 602.175781 114.15625 604.265625 115.636719 605.867188 C 115.550781 604.824219 115.097656 603.882812 114.8125 602.894531 C 114.542969 602.121094 115.050781 601.410156 115.242188 600.691406 C 115.207031 599.558594 114.40625 598.417969 115.921875 595.839844 C 116.085938 596.695312 115.898438 597.691406 116.539062 598.394531 C 117.171875 595.078125 115.378906 596.113281 117.273438 590.929688 C 117.460938 592.027344 117.4375 593.160156 117.753906 594.238281 C 118.054688 595.300781 118.613281 596.285156 118.777344 597.394531 C 119.066406 600.394531 118.601562 603.429688 118.964844 606.421875 C 119.050781 606.304688 119.222656 606.0625 119.308594 605.941406 C 121.4375 590.882812 115.335938 592.8125 120.152344 582.765625 C 121.140625 593.359375 121.421875 589.792969 122.253906 595.179688 C 122.324219 596.371094 122.144531 597.566406 122.25 598.765625 C 124.039062 596.386719 122.867188 596.746094 123.488281 595.132812 C 123.871094 594.054688 124.289062 592.972656 124.386719 591.828125 C 124.46875 590.621094 123.863281 589.402344 124.300781 588.21875 C 126.601562 581.429688 123.820312 581.585938 124.25 573.5 C 124.285156 573.167969 125.335938 549.902344 125.335938 549.902344 C 125.558594 550.914062 125.621094 551.949219 125.597656 552.988281 C 125.566406 554.398438 126.035156 555.742188 126.265625 557.117188 C 125.972656 556.574219 125.660156 556.03125 125.304688 555.535156 C 125.136719 558.433594 126.355469 561.824219 126.277344 563.238281 C 126.464844 563.011719 126.65625 562.792969 126.847656 562.582031 C 127.359375 566.339844 126.136719 570.039062 126.394531 573.800781 C 126.339844 575.570312 126.976562 577.277344 126.933594 579.046875 C 126.996094 582.09375 124.976562 607.191406 124.921875 607.5625 C 124.160156 611.800781 125.753906 626.597656 122.824219 637.191406 C 122.5 638.675781 122.027344 640.210938 122.367188 641.742188 C 123.035156 645.621094 121.53125 644.78125 120.023438 649.832031 C 120.167969 653.035156 118.722656 656.058594 118.800781 659.261719 C 118.660156 661.839844 120.863281 666.613281 122.457031 668.191406 C 121.863281 668.449219 121.265625 668.699219 120.679688 668.972656 C 121.601562 668.835938 122.503906 668.472656 123.449219 668.558594 C 123.773438 668.789062 124.066406 669.074219 124.363281 669.355469 C 124.203125 669.441406 123.882812 669.613281 123.722656 669.699219 C 124.765625 669.578125 125.800781 669.742188 126.785156 670.109375 C 128.277344 670.796875 129.441406 668.664062 131.054688 671.097656 C 132.570312 674.367188 136.421875 676.402344 134.675781 681.886719 C 134.070312 683.957031 133.765625 686.128906 132.914062 688.128906 C 132.125 690.046875 128.296875 693.972656 133.851562 698.015625 C 134.960938 698.777344 135.214844 701.742188 137.121094 704.753906 C 138.417969 706.566406 144.183594 706.808594 148.601562 708.503906 C 151.953125 709.820312 170.34375 709.703125 175.242188 707.675781 C 175.957031 707.300781 176.5625 706.753906 177.1875 706.257812 C 170.9375 688.128906 176.140625 703.820312 169.136719 686.441406 C 168.996094 685.097656 169.382812 683.78125 169.4375 682.453125 C 169.175781 682.308594 168.917969 682.179688 168.660156 682.054688 C 167.554688 677.894531 164.191406 678.683594 159.214844 670.40625 C 158.210938 667.898438 156.515625 665.753906 155.476562 663.261719 C 154.429688 660.679688 153.414062 661.199219 152.726562 657.277344 C 147.121094 625.167969 152.957031 603.894531 153.148438 599.9375 C 153.480469 593.925781 155.183594 585.113281 155.34375 584.515625 C 156.027344 582.261719 154.667969 583.648438 158.304688 576.746094 C 159.386719 574.441406 160.835938 572.277344 161.351562 569.753906 C 166.382812 552.695312 162.351562 564.65625 165.292969 549.929688 C 165.644531 548.484375 166.757812 547.40625 167.320312 546.054688 C 167.878906 544.699219 168.527344 543.457031 169.027344 542.078125 C 171.914062 534.105469 174.191406 530.21875 174.667969 529.042969 C 175.003906 528.207031 175.066406 527.242188 175.476562 526.425781 C 175.476562 526.425781 183.070312 511.855469 183.070312 511.855469 C 182.515625 513.953125 181.257812 515.824219 180.941406 517.992188 C 182.980469 516.269531 191.144531 493.632812 194.011719 490.066406 C 197.441406 485.769531 200.796875 478.953125 202.5625 477.328125 C 203.152344 477.484375 203.535156 478.019531 203.519531 478.628906 C 203.441406 481.441406 206.15625 495.25 197.550781 512.460938 C 190.132812 530.234375 182.679688 535.167969 180.878906 544.492188 C 178.9375 554.570312 179.597656 553.542969 187.894531 564.367188 C 199.925781 580.066406 233.773438 637.363281 233.878906 637.738281 C 234.472656 639.527344 233.296875 641.210938 232.777344 642.867188 C 233.191406 642.570312 233.605469 642.277344 234.019531 641.984375 C 234.050781 642.089844 234.109375 642.300781 234.136719 642.40625 C 234.414062 642.714844 234.875 642.976562 234.855469 643.460938 C 234.980469 644.601562 234.210938 645.550781 233.699219 646.503906 C 233.964844 646.6875 234.226562 646.875 234.492188 647.070312 C 234.882812 646.574219 235.265625 646.070312 235.660156 645.589844 C 235.535156 646.207031 235.402344 646.835938 235.277344 647.460938 C 235.730469 648.320312 235.066406 649.136719 234.757812 649.921875 C 235.28125 649.925781 235.808594 649.933594 236.335938 649.933594 C 236.273438 650.242188 236.210938 650.558594 236.152344 650.882812 C 236.425781 650.617188 236.699219 650.351562 236.976562 650.097656 C 236.625 651.359375 236.089844 652.570312 235.867188 653.871094 C 236.21875 653.832031 236.570312 653.804688 236.925781 653.78125 C 236.378906 654.550781 235.867188 655.359375 235.550781 656.261719 C 236.304688 655.730469 236.949219 655.0625 237.621094 654.4375 C 237.53125 655.957031 236.792969 657.367188 236.851562 658.894531 C 237.183594 658.46875 237.492188 658.035156 237.800781 657.601562 C 237.695312 658.578125 237.566406 659.558594 237.363281 660.527344 C 237.523438 660.519531 237.847656 660.511719 238.011719 660.5 C 238.3125 662.253906 239.101562 664.09375 240.65625 665.085938 C 240.703125 664.6875 240.761719 664.296875 240.828125 663.917969 C 241.105469 664.273438 241.382812 664.648438 241.652344 665.027344 C 241.824219 664.757812 242 664.492188 242.179688 664.238281 C 242.457031 664.609375 242.738281 664.992188 243.023438 665.375 C 243.339844 664.015625 243.878906 662.710938 244.738281 661.601562 C 244.875 661.632812 245.144531 661.6875 245.28125 661.71875 C 245.789062 661.578125 246.292969 661.429688 246.800781 661.285156 C 247.085938 661.777344 247.457031 662.242188 247.625 662.796875 C 247.640625 663.683594 247.304688 664.527344 247.113281 665.390625 C 246.917969 664.96875 246.757812 664.546875 246.597656 664.128906 C 246.445312 665.238281 246.453125 666.417969 247.046875 667.414062 C 247.59375 666.132812 247.929688 664.789062 248.351562 663.472656 C 249.15625 664.769531 248.636719 666.34375 248.722656 667.769531 C 249.121094 667.628906 249.507812 667.46875 249.902344 667.320312 C 249.878906 667.605469 249.855469 667.902344 249.832031 668.203125 C 250.324219 668.289062 250.820312 668.40625 251.308594 668.546875 C 251.546875 668.199219 251.773438 667.847656 252.003906 667.503906 C 252.117188 668.527344 252.105469 669.5625 252.121094 670.597656 C 252.640625 670.308594 253.160156 670.035156 253.691406 669.777344 C 253.703125 670.488281 253.707031 671.203125 253.699219 671.925781 C 253.8125 671.90625 254.050781 671.867188 254.167969 671.847656 C 254.023438 673.066406 254.003906 674.449219 253.074219 675.378906 C 252.097656 676.429688 251.875 677.953125 250.832031 678.957031 C 250.097656 679.667969 247.425781 683.8125 248.472656 685.976562 C 250.113281 689.597656 250.789062 695.375 255.300781 697.867188 C 256.707031 698.640625 257.808594 699.878906 259.265625 700.574219 C 264.789062 702.472656 274.503906 703.273438 274.972656 703.273438 C 287.089844 703.5625 285.910156 702.878906 291.445312 701.277344 C 291.785156 700.070312 292.605469 698.882812 292.21875 697.589844 C 288.53125 684.660156 287.753906 687.851562 284.773438 681.480469 C 289.464844 676.171875 283.089844 672.738281 283.0625 668.351562 C 282.957031 668.324219 282.742188 668.265625 282.636719 668.238281 C 282.621094 668.425781 282.59375 668.792969 282.578125 668.980469 C 281.820312 668.75 280.863281 668.746094 280.375 668.027344 C 274.644531 660.773438 275.421875 653.839844 271.671875 651.007812 C 271.789062 649.96875 273.191406 649.5625 272.921875 648.449219 C 271.910156 639.933594 271.433594 640.34375 270.351562 638.644531 C 225.28125 570.019531 235.460938 577.617188 230.167969 568.511719 C 229.667969 567.65625 229.449219 566.695312 228.835938 565.871094 C 228.15625 565 228.65625 563.902344 229.019531 563.015625 C 229.496094 561.847656 229.660156 560.667969 230.234375 559.546875 C 231.734375 556.621094 234.472656 553.023438 233.273438 547.804688 C 233.050781 546.886719 233.699219 546.070312 234.03125 545.265625 C 235.398438 542.832031 235.742188 539.296875 237.820312 534.390625 C 240.835938 527.261719 243.515625 524.003906 245.6875 519.035156 C 247.71875 514.390625 247.671875 510.878906 251.011719 508.488281 C 254.195312 506.414062 254.949219 499.453125 256.128906 497.105469 C 268.027344 473.394531 265.277344 481.800781 269.355469 474.707031 C 271.46875 471.035156 271.816406 467.785156 274.738281 464.152344 C 275.488281 463.214844 275.46875 462.042969 275.90625 460.9375 C 276.351562 459.757812 277.066406 458.714844 277.785156 457.691406 C 278.683594 458.285156 285.488281 461.96875 291.234375 466.265625 C 292.378906 467.140625 293.851562 467.308594 295.144531 467.875 C 298.035156 469.101562 297.171875 472.375 309.128906 475.070312 C 319.636719 477.441406 323.058594 481.035156 328.304688 482.226562 C 329.445312 482.484375 330.617188 482.589844 331.742188 482.90625 C 334.171875 483.59375 336.191406 484.878906 338.800781 484.867188 C 340.589844 484.894531 342.265625 485.582031 343.96875 486.050781 C 345.039062 486.363281 346.175781 486.195312 347.269531 486.382812 C 348.859375 486.597656 350.359375 487.21875 351.957031 487.417969 C 357.859375 488.636719 377.332031 488.441406 383.042969 487.367188 C 385.453125 486.910156 395.464844 486.828125 396.609375 486.671875 C 397.007812 486.535156 403.609375 485.4375 403.75 485.425781 C 407.433594 485.277344 412.855469 483.003906 417.90625 482.828125 C 422.628906 482.667969 427.292969 483.558594 431.722656 481.359375 C 437.273438 478.835938 452.585938 476.78125 455.945312 476.578125 C 460.570312 476.304688 464.988281 474.609375 469.648438 474.375 C 473.550781 474.179688 472.988281 475.132812 475.417969 473.652344 C 476.394531 473.710938 477.382812 473.671875 478.359375 473.777344 C 479.039062 473.933594 479.644531 474.332031 480.335938 474.457031 C 481.019531 474.554688 481.722656 474.503906 482.40625 474.640625 C 484.859375 476.070312 483.296875 481.285156 484.976562 490.3125 C 485.070312 490.773438 485.394531 497.660156 484.957031 500.34375 C 484.675781 502.300781 486.875 516.824219 486.113281 521.519531 C 485.4375 526.785156 485.921875 537.683594 486.449219 539.949219 C 488.042969 546.601562 487.058594 549.132812 487.15625 563.332031 C 487.234375 565.660156 484.144531 565.582031 486.621094 570.539062 C 487.640625 572.40625 488.03125 574.542969 489.121094 576.382812 C 491.964844 581.042969 491.242188 586.089844 491.308594 588.785156 C 491.09375 591.3125 491.769531 593.90625 490.988281 596.375 C 490.988281 596.375 488.667969 613.925781 487.101562 621.980469 C 486.378906 624.75 487.371094 628.496094 485.261719 635.953125 C 484.859375 637.535156 484.625 639.152344 484.257812 640.742188 C 483.875 642.167969 484.363281 643.738281 483.667969 645.097656 C 482.761719 647.058594 481.582031 649.050781 481.839844 651.300781 C 482.0625 650.792969 482.261719 650.277344 482.484375 649.773438 C 482.808594 652.046875 481.398438 654.050781 481.492188 656.304688 C 481.75 655.914062 482.003906 655.523438 482.257812 655.136719 C 481.984375 657.816406 480.082031 664.125 481.601562 669.527344 C 481.933594 669.664062 482.3125 669.777344 482.542969 670.082031 C 489.398438 678.121094 485.832031 674.550781 491.230469 678.402344 C 491.273438 677.976562 491.277344 677.550781 491.285156 677.132812 C 491.671875 677.25 492.0625 677.371094 492.460938 677.492188 C 492.496094 677.597656 492.5625 677.804688 492.597656 677.90625 C 493.808594 677.339844 494.820312 678.59375 495.949219 678.863281 C 496.300781 679.390625 496.765625 679.847656 497.378906 680.0625 C 497.441406 680.148438 497.558594 680.320312 497.621094 680.40625 C 497.964844 680.457031 498.316406 680.496094 498.664062 680.597656 C 499.019531 681.300781 499.53125 682.105469 499.289062 682.929688 C 498.628906 684.777344 497.402344 686.355469 496.011719 687.710938 C 494.546875 689.070312 494.371094 691.167969 493.742188 692.957031 C 492.453125 696.3125 495.546875 696.964844 496.953125 698.144531 C 498.761719 699.464844 500.421875 703.523438 500.796875 704.023438 C 502.117188 705.710938 504.527344 709.367188 505.957031 709.582031 C 508.34375 709.9375 525.84375 709.003906 533.894531 705.570312 C 535.75 704.921875 537.023438 703.070312 537.339844 701.179688 C 537.683594 698.605469 534.074219 694.054688 533.269531 691.792969 C 547.917969 700.296875 553.628906 696.757812 555.261719 696.542969 C 563.644531 695.109375 565.808594 692.898438 567.300781 691.3125 C 565.023438 685.105469 564.632812 686.460938 563.101562 683.132812 C 561.351562 678.996094 557.789062 675.375 558.203125 674.148438 C 558.570312 672.871094 559.082031 671.476562 558.421875 670.199219 C 557.890625 669.101562 556.234375 664.230469 553.070312 663.695312 C 551.554688 663.378906 550.046875 662.820312 548.925781 661.714844 C 541.277344 654.234375 544.542969 656.515625 540.890625 651.429688 C 540.054688 650.265625 536.980469 643.316406 536.757812 642.1875 C 535.144531 634.007812 534.808594 634.707031 534.292969 632.386719 C 533.488281 628.765625 534.332031 606.617188 534.351562 606.246094 C 534.429688 605.183594 534.96875 604.191406 534.878906 603.117188 C 534.8125 601.195312 534.714844 599.246094 535.117188 597.351562 C 537.429688 584.640625 534.710938 592.703125 538.175781 583.207031 C 538.308594 582.835938 541.722656 559.105469 542.695312 540.324219 C 542.578125 540.332031 543.5625 530.335938 544.835938 525.433594 C 546.847656 515.667969 546.394531 520.414062 548.894531 507.054688 C 550.464844 497.980469 549.675781 497.683594 551.964844 488.609375 C 552.058594 488.242188 556.847656 467.683594 556.832031 465.292969 C 556.996094 463.027344 558.433594 461.175781 559.085938 459.054688 C 559.546875 458.039062 559.679688 456.699219 560.753906 456.109375 C 569.585938 450.570312 583.257812 440.699219 586.804688 430.898438 C 586.875 430.992188 588.441406 427.480469 588.800781 425.484375 C 589.742188 420.917969 593.703125 412.414062 593.859375 412.042969 C 596.234375 405.644531 597.207031 406.289062 597.972656 404.613281 C 599.929688 400.691406 603.695312 364.921875 603.722656 364.550781 C 603.75 363.734375 604.382812 363.136719 604.910156 362.585938 C 617.21875 350.503906 616.785156 348.101562 621.886719 339.566406 C 650.003906 292.539062 655.746094 267.734375 655.746094 267.734375 C 656.40625 267.894531 656.996094 268.246094 657.613281 268.539062 C 660.292969 269.886719 666.863281 270.386719 667.234375 270.441406 C 669.617188 271.527344 672.050781 275.894531 677.511719 279.207031 C 680.746094 281.050781 683.644531 283.476562 687.109375 284.917969 C 690.53125 286.367188 693.726562 288.320312 696.808594 290.390625 C 698.4375 291.054688 700.289062 291.636719 701.324219 293.175781 C 704.316406 299.839844 705.292969 304.34375 708.65625 306.839844 C 716.371094 309.867188 717.582031 307.210938 722.011719 307.257812 C 723.449219 307.242188 724.566406 306.175781 725.910156 305.800781 C 727.351562 305.335938 731.289062 305.988281 732.542969 302.953125 C 733.0625 301.550781 734.980469 301.777344 735.652344 300.511719 C 738.125 296.53125 738.410156 297.953125 741.300781 291.246094 C 746.175781 279.460938 743.871094 286.984375 746.199219 277.089844 C 747.1875 272.460938 734.703125 254.425781 733.714844 249.878906 Z M 720.214844 180.699219 C 719.402344 180.640625 718.847656 180.210938 718.789062 179.375 C 719.367188 179.6875 719.878906 180.117188 720.214844 180.699219 Z M 98.875 574.507812 C 99.160156 575.3125 99.214844 576.164062 99.25 577.011719 C 99.144531 577.011719 98.933594 577.015625 98.824219 577.019531 C 98.789062 576.179688 98.789062 575.339844 98.875 574.507812 Z M 98.441406 372.320312 C 97.9375 374.160156 97.238281 376.027344 95.894531 377.433594 C 96.269531 375.53125 97.375 373.898438 98.441406 372.320312 Z M 96.984375 600.835938 C 96.878906 599.714844 96.796875 598.484375 97.476562 597.519531 C 97.582031 598.644531 97.523438 599.816406 96.984375 600.835938 Z M 94.847656 574.035156 C 96.140625 576.210938 95.363281 577.945312 94.910156 583.875 C 93.574219 580.71875 94.523438 577.285156 94.847656 574.035156 Z M 95.023438 565.683594 C 95.035156 567.117188 95.148438 568.589844 94.761719 569.988281 C 94.511719 568.554688 94.75 567.097656 95.023438 565.683594 Z M 95.558594 595.628906 C 95.941406 597.035156 96.058594 598.554688 95.648438 599.972656 C 95.449219 598.53125 95.46875 597.074219 95.558594 595.628906 Z M 96.003906 589.9375 C 96.765625 591.484375 96.402344 593.308594 96.242188 594.964844 C 95.894531 593.328125 95.226562 591.550781 96.003906 589.9375 Z M 96.585938 601.402344 C 96.601562 602.347656 96.449219 603.289062 96.382812 604.234375 C 96.308594 604.230469 96.152344 604.222656 96.074219 604.222656 C 96.050781 603.253906 96.027344 602.238281 96.585938 601.402344 Z M 95.921875 573.578125 C 95.554688 572.726562 95.320312 571.8125 95.386719 570.882812 C 95.886719 571.6875 95.984375 572.644531 95.921875 573.578125 Z M 95.683594 379.496094 C 95.308594 381.1875 94.738281 382.867188 93.765625 384.324219 C 93.851562 382.546875 94.753906 380.957031 95.683594 379.496094 Z M 92.519531 584.828125 C 93.714844 590.34375 93.429688 591.402344 92.707031 593.023438 C 92.269531 590.316406 92.558594 587.558594 92.519531 584.828125 Z M 92.742188 599.652344 C 92.742188 598.304688 92.683594 596.929688 93.089844 595.628906 C 93.132812 596.976562 93.03125 598.332031 92.742188 599.652344 Z M 92.023438 565.117188 C 92.472656 566.1875 92.558594 567.347656 92.347656 568.488281 C 92.101562 567.378906 91.90625 566.253906 92.023438 565.117188 Z M 91.503906 398.929688 C 91.390625 400.242188 90.980469 401.535156 90.175781 402.589844 C 90.441406 401.3125 90.960938 400.105469 91.503906 398.929688 Z M 90.105469 403.84375 C 89.796875 405.554688 88.90625 407.101562 87.894531 408.492188 C 87.855469 406.660156 88.917969 405.128906 90.105469 403.84375 Z M 87.8125 409.949219 C 88.382812 408.953125 89.242188 408.148438 89.695312 407.085938 C 90.574219 405.464844 90.765625 403.585938 91.636719 401.964844 C 91.832031 405.40625 89.921875 408.921875 87.933594 412.078125 C 87.847656 411.375 87.636719 410.648438 87.8125 409.949219 Z M 91.570312 576.082031 C 91.660156 577.082031 91.496094 578.085938 91.261719 579.0625 C 90.738281 578.082031 90.730469 576.886719 91.570312 576.082031 Z M 90.789062 575.792969 C 90.769531 574.941406 90.988281 574.117188 91.457031 573.410156 C 91.542969 574.269531 91.347656 575.121094 90.789062 575.792969 Z M 89.972656 568.28125 C 89.753906 567.316406 89.6875 566.328125 89.714844 565.347656 C 90.347656 566.21875 90.402344 567.304688 89.972656 568.28125 Z M 85.914062 496.523438 C 88.25 499.132812 87.414062 499.078125 86.324219 501.144531 C 85.980469 499.632812 85.746094 498.074219 85.914062 496.523438 Z M 85.804688 493.640625 C 85.828125 492.980469 85.765625 492.285156 86.101562 491.695312 C 86.6875 490.578125 86.96875 489.332031 87.578125 488.234375 C 87.136719 490.078125 86.40625 491.839844 85.804688 493.640625 Z M 87.933594 500.042969 C 88.757812 502.730469 88.503906 503.054688 87.585938 505.140625 C 86.339844 502.820312 86.636719 502.179688 87.933594 500.042969 Z M 87.492188 497.292969 C 86.027344 495.328125 85.558594 496.25 88.726562 487.351562 C 89.605469 489.574219 88.246094 490.875 87.492188 497.292969 Z M 88.507812 480.5 C 88.078125 479.601562 87.789062 478.644531 87.730469 477.648438 C 89.167969 478.773438 89.148438 479.003906 88.507812 480.5 Z M 88.957031 493.527344 C 89.347656 495.683594 89.339844 497.933594 89.003906 500.101562 C 88.292969 498.828125 88.539062 495.039062 88.957031 493.527344 Z M 88.121094 472.472656 C 88.441406 470.324219 88.476562 468.105469 89.265625 466.058594 C 89.25 467.375 88.777344 468.679688 89.039062 470.003906 C 89.390625 472.699219 89.601562 475.417969 89.492188 478.136719 C 88.507812 476.441406 87.910156 474.445312 88.121094 472.472656 Z M 87.988281 414.851562 C 88.113281 414.867188 88.355469 414.902344 88.480469 414.921875 C 88.363281 415.351562 88.238281 415.785156 88.097656 416.210938 C 88.066406 415.753906 88.03125 415.300781 87.988281 414.851562 Z M 88.574219 414.050781 C 88.464844 412.867188 88.871094 411.722656 89.558594 410.773438 C 89.492188 411.921875 89.207031 413.078125 88.574219 414.050781 Z M 86.183594 436.140625 C 85.476562 433.78125 85.621094 431.167969 86.457031 428.859375 C 86.371094 431.285156 86.425781 433.722656 86.183594 436.140625 Z M 86.109375 421.859375 C 86.03125 421.855469 85.867188 421.851562 85.785156 421.851562 C 84.441406 418.832031 84.636719 413.601562 86.621094 411.144531 C 88.222656 414.519531 87.019531 414.265625 87.347656 416.148438 C 87.824219 418.152344 86.617188 419.980469 86.109375 421.859375 Z M 87.449219 450.785156 C 87.472656 449.804688 87.472656 448.828125 87.480469 447.847656 L 87.785156 447.835938 C 87.757812 448.816406 87.699219 449.800781 87.574219 450.78125 Z M 86.058594 477.058594 C 87.296875 479.019531 87.339844 481.621094 86.476562 483.726562 C 86.511719 481.492188 85.941406 479.296875 86.058594 477.058594 Z M 85.558594 490.898438 C 86.050781 488.410156 87.382812 483.195312 87.753906 482.347656 C 88.5625 485.769531 88.101562 485.03125 85.558594 490.898438 Z M 84.71875 511.125 C 84.628906 508.988281 85.214844 506.90625 85.898438 504.90625 C 86.015625 507.039062 85.511719 509.15625 84.71875 511.125 Z M 87.011719 508.199219 C 87 509.988281 86.277344 511.652344 85.769531 513.339844 C 85.433594 514.382812 85.828125 515.472656 85.8125 516.539062 C 84.289062 514.257812 86.113281 509.644531 87.011719 508.199219 Z M 87.375 519.730469 C 87.074219 517.773438 85.898438 514.566406 88.3125 508.511719 C 88.453125 510.347656 87.425781 519.359375 87.375 519.730469 Z M 88.371094 542.640625 C 88.109375 546.097656 89.453125 554.742188 88.765625 557.90625 C 88 555.632812 87.519531 545.8125 88.371094 542.640625 Z M 88.644531 564.980469 C 88.695312 564.976562 88.796875 564.972656 88.847656 564.972656 C 88.933594 567.296875 89.703125 569.609375 89.28125 571.9375 C 88.390625 569.71875 88.71875 567.300781 88.644531 564.980469 Z M 89.917969 578.957031 C 90.269531 581.210938 90.578125 583.554688 89.984375 585.800781 C 89.140625 583.640625 88.589844 581.046875 89.917969 578.957031 Z M 89.628906 593.078125 C 89.128906 591.832031 89.519531 590.523438 90.195312 589.445312 C 90.34375 590.675781 90.089844 591.925781 89.628906 593.078125 Z M 88.425781 582.992188 C 89.011719 585.308594 90.210938 587.824219 89.039062 590.167969 C 87.730469 588.121094 87.136719 585.203125 88.425781 582.992188 Z M 87.074219 586.957031 C 87.378906 588.601562 88.472656 590.105469 88.355469 591.800781 C 87.578125 593.472656 86.660156 595.125 85.402344 596.488281 C 84.925781 593.21875 86.003906 589.996094 87.074219 586.957031 Z M 85.898438 597.386719 C 86.800781 595.78125 87.875 594.273438 88.804688 592.683594 C 90.5 595.277344 88.226562 601.238281 87.757812 602.21875 C 87.175781 600.589844 86.550781 598.984375 85.898438 597.386719 Z M 90.460938 594.308594 C 90.523438 593.449219 90.589844 592.589844 90.824219 591.761719 C 91.683594 595.484375 90.523438 602.027344 90.648438 606.25 C 90.75 607.855469 89.972656 609.332031 89.273438 610.722656 C 85.980469 605.636719 90.148438 600 90.460938 594.308594 Z M 90.800781 609.429688 C 90.582031 611.164062 90.414062 612.929688 90.863281 614.65625 C 89.222656 611.597656 89.730469 610.882812 90.800781 609.429688 Z M 92.972656 618.082031 C 91.660156 615.964844 90.996094 613.429688 91.183594 610.949219 C 91.53125 611.257812 91.878906 611.578125 92.234375 611.894531 C 92.097656 610.84375 91.789062 609.808594 91.773438 608.753906 C 91.9375 607.308594 92.820312 606.082031 93.046875 604.65625 C 93.300781 603.0625 93.539062 601.34375 94.648438 600.09375 C 94.667969 599.515625 94.683594 598.941406 94.734375 598.375 C 96.3125 605.164062 93.320312 614.460938 92.972656 618.082031 Z M 97.820312 607.625 C 97.8125 608.320312 98.195312 609.082031 97.828125 609.746094 C 97.171875 610.917969 96.261719 611.949219 95.738281 613.203125 C 95.148438 614.574219 94.625 616.011719 93.652344 617.175781 C 94.007812 613.878906 95.347656 610.765625 95.601562 607.449219 C 95.835938 607.484375 96.066406 607.527344 96.300781 607.570312 C 96.300781 607.570312 97.4375 603.082031 97.953125 600.167969 C 98.167969 600.289062 98.386719 600.417969 98.605469 600.554688 C 98.867188 602.960938 97.511719 605.214844 97.820312 607.625 Z M 98.636719 608.042969 C 98.425781 606.460938 98.617188 604.84375 99.195312 603.363281 C 99.246094 604.929688 99.332031 606.585938 98.636719 608.042969 Z M 99.476562 599.617188 C 98.921875 598.367188 98.804688 596.972656 99.191406 595.65625 C 99.949219 596.851562 99.777344 598.300781 99.476562 599.617188 Z M 118.066406 570.800781 C 117.273438 569.199219 118.199219 567.527344 118.617188 565.964844 C 118.65625 567.59375 118.480469 569.222656 118.066406 570.800781 Z M 117.542969 557.019531 C 118.308594 558.058594 118.523438 559.382812 118.0625 560.601562 C 117.917969 560.609375 117.628906 560.628906 117.484375 560.640625 C 117.53125 559.429688 117.476562 558.222656 117.542969 557.019531 Z M 115.707031 579.402344 C 115.972656 580.695312 115.914062 582.039062 115.652344 583.328125 C 114.925781 582.136719 115.078125 580.597656 115.707031 579.402344 Z M 114.726562 583.609375 C 115.273438 584.402344 115.25 585.328125 114.714844 586.128906 C 114.628906 585.285156 114.625 584.441406 114.726562 583.609375 Z M 114.523438 589.347656 C 114.804688 588.269531 115.203125 587.097656 115.6875 586.089844 C 116.691406 587.539062 115.414062 589.214844 114.839844 590.585938 C 114.636719 590.199219 114.347656 589.792969 114.523438 589.347656 Z M 113.644531 568.988281 C 114.226562 570.617188 113.515625 572.289062 113.105469 573.871094 C 112.953125 572.222656 113.148438 570.5625 113.644531 568.988281 Z M 107.242188 580.023438 C 107.292969 581.171875 106.855469 582.257812 106.304688 583.246094 C 106.386719 582.121094 106.585938 580.960938 107.242188 580.023438 Z M 101.691406 580.082031 C 102.867188 581.710938 102.933594 581.753906 101.699219 583.5 C 101.640625 583.703125 101.527344 584.105469 101.46875 584.308594 C 101.523438 583.746094 101.710938 583.203125 101.933594 582.695312 C 101.765625 581.832031 101.675781 580.953125 101.691406 580.082031 Z M 100.128906 359.097656 C 100.179688 358.308594 100.53125 357.597656 101.230469 357.199219 C 101.117188 357.957031 100.726562 358.621094 100.128906 359.097656 Z M 102.066406 604.347656 C 101.65625 603.628906 101.328125 602.871094 101.152344 602.066406 C 101.488281 602.324219 101.835938 602.578125 102.140625 602.882812 C 102.316406 603.347656 102.097656 603.859375 102.066406 604.347656 Z M 102.667969 601.117188 C 102.203125 600.351562 102.019531 599.421875 102.515625 598.628906 C 102.710938 599.441406 102.785156 600.28125 102.667969 601.117188 Z M 103.953125 572.050781 C 103.96875 574.730469 103.792969 577.429688 103.101562 580.03125 C 101.507812 578.445312 101.550781 579.691406 103.953125 572.050781 Z M 103.621094 609.671875 C 103.007812 608.082031 102.636719 606.332031 102.855469 604.628906 C 103.492188 606.222656 103.71875 607.960938 103.621094 609.671875 Z M 103.5625 596.09375 C 103.664062 594.328125 104.1875 592.613281 104.242188 590.84375 C 104.429688 590.714844 104.617188 590.59375 104.808594 590.476562 C 104.699219 589.59375 104.871094 588.726562 105.171875 587.902344 C 105.359375 588.78125 105.746094 589.683594 105.511719 590.59375 C 104.96875 592.460938 104.613281 594.425781 103.5625 596.09375 Z M 104.25 598.015625 C 104.441406 596.390625 104.867188 594.765625 105.734375 593.371094 C 105.644531 595.011719 105.167969 596.640625 104.25 598.015625 Z M 105.824219 568.996094 C 106.128906 569.839844 106.199219 570.742188 106.121094 571.636719 C 105.8125 570.789062 105.785156 569.882812 105.824219 568.996094 Z M 105.96875 586.921875 C 105.96875 585.535156 106.582031 584.257812 107.300781 583.109375 C 107.269531 584.488281 106.714844 585.785156 105.96875 586.921875 Z M 106.863281 590.640625 C 107.316406 590.609375 107.289062 591.636719 106.839844 591.609375 C 106.582031 591.363281 106.609375 590.867188 106.863281 590.640625 Z M 107.128906 598.402344 C 106.550781 597.230469 107.566406 596.074219 108.082031 595.078125 C 107.617188 599.613281 108.367188 597.828125 108.628906 601.664062 C 107.875 600.703125 107.617188 599.496094 107.128906 598.402344 Z M 108.558594 589.933594 C 108.527344 588.5625 108.746094 587.199219 109.121094 585.886719 C 109.292969 587.257812 109.203125 588.6875 108.558594 589.933594 Z M 109.097656 598.535156 C 108.839844 598.300781 108.832031 597.800781 109.09375 597.578125 C 109.550781 597.53125 109.546875 598.5625 109.097656 598.535156 Z M 109.761719 597.074219 C 109.441406 596.390625 109.058594 595.660156 109.242188 594.882812 C 109.625 592.410156 110.527344 590.019531 111.738281 587.839844 C 111.953125 588.957031 113.054688 591.15625 109.761719 597.074219 Z M 111.695312 331.894531 C 111.984375 330.84375 112.671875 329.972656 113.488281 329.277344 C 113.085938 330.261719 112.53125 331.210938 111.695312 331.894531 Z M 112.578125 583.609375 C 112.597656 582.734375 112.695312 581.828125 113.210938 581.09375 C 113.4375 582.003906 113.183594 582.902344 112.578125 583.609375 Z M 114.023438 590.71875 C 114.769531 591.546875 114.292969 592.5625 113.734375 593.335938 C 113.660156 592.445312 113.796875 591.566406 114.023438 590.71875 Z M 114.582031 596.761719 C 113.972656 595.417969 114.261719 593.941406 114.890625 592.671875 C 116.121094 592.691406 114.960938 595.785156 114.582031 596.761719 Z M 115.691406 592.5 C 115.160156 591.035156 116.03125 589.625 116.703125 588.378906 C 116.746094 589.800781 116.632812 591.355469 115.691406 592.5 Z M 117.113281 587.433594 C 117.265625 585.882812 117.78125 584.402344 118.117188 582.890625 C 118.117188 584.453125 117.820312 586.027344 117.113281 587.433594 Z M 116.503906 586.007812 C 115.660156 584.164062 116.679688 582.195312 116.976562 580.335938 C 117.648438 578.332031 117.398438 576.210938 117.628906 574.148438 C 119.296875 577.300781 116.902344 585.132812 116.503906 586.007812 Z M 119.132812 583.011719 C 119.09375 581.039062 119.078125 579.054688 119.390625 577.105469 C 119.738281 574.898438 117.953125 572.84375 118.828125 570.664062 C 119.117188 572.179688 119.023438 573.75 119.40625 575.253906 C 120.078125 578.660156 120.382812 579.40625 119.132812 583.011719 Z M 138.164062 432.121094 C 138.960938 433.945312 138.578125 435.988281 138.539062 437.910156 C 137.519531 436.121094 137.769531 434.046875 138.164062 432.121094 Z M 137.902344 455.464844 C 138.644531 453.292969 138.011719 450.980469 138.378906 448.757812 C 138.882812 450.078125 138.976562 451.503906 139.371094 452.855469 C 139.515625 451.347656 138.726562 445.636719 138.996094 444.046875 C 140.496094 448.464844 139.777344 450.980469 139.695312 465.933594 C 138.050781 463.132812 136.535156 461.214844 137.902344 455.464844 Z M 139.871094 470.429688 C 138.710938 468.453125 137.605469 466.277344 137.515625 463.941406 C 138.933594 465.78125 140.363281 467.984375 139.871094 470.429688 Z M 135.796875 461.875 C 136.125 463.007812 136.171875 464.199219 136.09375 465.375 C 135.664062 464.257812 135.722656 463.042969 135.796875 461.875 Z M 135.101562 465.347656 C 135.917969 467.292969 136.132812 469.558594 135.171875 471.496094 C 134.550781 469.503906 134.425781 467.347656 135.101562 465.347656 Z M 133.257812 473.300781 C 133.363281 474.972656 133.769531 476.648438 133.367188 478.320312 C 133.039062 476.664062 132.933594 474.964844 133.257812 473.300781 Z M 134.023438 491.910156 C 134.773438 495.984375 134.3125 502.242188 133.527344 504.554688 C 131.761719 499.964844 133.609375 492.949219 134.023438 491.910156 Z M 123.445312 545.625 C 124.835938 547.539062 123 550.492188 122.699219 554.265625 C 122.652344 554.261719 122.558594 554.257812 122.511719 554.257812 C 122.265625 549.757812 122.414062 549.570312 123.445312 545.625 Z M 122.996094 533.21875 C 123 534.574219 123.015625 535.929688 123.019531 537.289062 C 122.089844 536.074219 121.925781 537.320312 122.996094 533.21875 Z M 122.96875 525.664062 C 123.089844 528.046875 123.203125 530.511719 122.253906 532.761719 C 122.324219 530.398438 121.617188 527.792969 122.96875 525.664062 Z M 121.644531 559.59375 C 122.597656 564.738281 124.199219 563.332031 121.890625 573.542969 C 121.941406 570.597656 122 567.644531 121.90625 564.703125 C 121.386719 563.039062 121.65625 561.300781 121.644531 559.59375 Z M 121.03125 568.558594 L 121.171875 568.5625 C 121.222656 571.347656 121.003906 574.152344 120.503906 576.894531 C 119.878906 574.195312 121.191406 574.367188 121.03125 568.558594 Z M 121.664062 589.640625 C 121.035156 586.691406 120.507812 583.625 121.113281 580.625 C 121.894531 583.570312 121.621094 586.628906 121.664062 589.640625 Z M 122.15625 580.636719 C 122.09375 580.640625 121.96875 580.640625 121.902344 580.640625 C 121.890625 577.589844 122.253906 573.742188 123.175781 571.660156 C 123.476562 574.691406 122.695312 577.679688 122.15625 580.636719 Z M 122.769531 584.949219 C 122.394531 583.726562 122.375 582.410156 122.75 581.1875 C 122.832031 582.4375 122.851562 583.695312 122.769531 584.949219 Z M 122.472656 586.457031 C 123.023438 587.742188 123.359375 589.195312 122.800781 590.546875 C 122.191406 589.273438 122.457031 587.8125 122.472656 586.457031 Z M 122.957031 594.40625 C 122.667969 593.207031 122.667969 591.917969 123.355469 590.855469 C 123.4375 592.046875 123.457031 593.289062 122.957031 594.40625 Z M 123.570312 554.902344 C 123.585938 553.753906 123.550781 552.589844 123.894531 551.484375 C 123.910156 554.769531 123.882812 558.054688 123.875 561.347656 C 122.332031 557.265625 123.570312 557.625 123.570312 554.902344 Z M 123.867188 587.15625 C 123.484375 584.769531 123.476562 582.320312 123.742188 579.925781 C 124.925781 582.125 124.515625 584.839844 123.867188 587.15625 Z M 123.890625 533.605469 C 123.589844 531.363281 124.234375 529.191406 124.949219 527.09375 C 126.054688 528.546875 125.753906 530.085938 123.890625 533.605469 Z M 126.09375 527.253906 C 125.378906 526.367188 125.273438 525.160156 125.960938 524.222656 C 126.117188 525.21875 126.148438 526.238281 126.09375 527.253906 Z M 126.148438 520.328125 C 125.847656 518.5 126.230469 516.671875 126.640625 514.898438 C 126.519531 516.699219 127.117188 518.675781 126.148438 520.328125 Z M 126.789062 524.476562 C 126.527344 523.207031 126.488281 521.886719 126.820312 520.625 C 127.804688 521.742188 127.382812 523.28125 126.789062 524.476562 Z M 127.167969 528.304688 C 127.070312 526.71875 127.320312 525.105469 128.09375 523.707031 C 128.199219 525.296875 127.699219 526.828125 127.167969 528.304688 Z M 128.753906 519.230469 C 129.691406 520.601562 128.96875 522.335938 128.308594 523.667969 C 128.171875 522.171875 128.464844 520.6875 128.753906 519.230469 Z M 129.039062 525.25 C 129.089844 523.929688 129.503906 522.667969 129.914062 521.429688 C 130.132812 521.921875 130.460938 522.402344 130.496094 522.960938 C 130.210938 523.832031 129.605469 524.546875 129.039062 525.25 Z M 130.40625 519.777344 C 130.125 518.734375 130.257812 517.648438 130.125 516.59375 C 129.082031 511.703125 130.003906 507.507812 131.53125 501.972656 C 132.328125 503.640625 133.789062 505.394531 133.089844 507.347656 C 132.496094 509.285156 130.515625 519.304688 130.40625 519.777344 Z M 145.832031 488.273438 C 141.707031 498.582031 139.316406 503.03125 137.707031 508 C 136.128906 512.867188 133.582031 517.160156 131.101562 521.59375 C 130.519531 519.644531 131.898438 517.527344 132.789062 511.535156 C 132.960938 510.417969 136.28125 500.949219 134.722656 490.515625 C 134.433594 488.109375 135.304688 485.71875 134.886719 483.320312 C 134.585938 482.324219 133.898438 481.398438 134.105469 480.308594 C 134.003906 479.589844 134.597656 479.167969 135.082031 478.769531 C 135.394531 479.679688 135.71875 480.59375 136.128906 481.464844 C 136.339844 479.097656 134.796875 476.875 135.421875 474.515625 C 135.746094 473.023438 135.914062 471.441406 136.789062 470.136719 C 137.96875 473.3125 137.921875 475.367188 139.996094 482.96875 C 140.074219 482.414062 139.78125 481.902344 139.691406 481.371094 C 139.003906 479.210938 138.722656 476.957031 138.328125 474.730469 C 138.476562 474.757812 138.78125 474.8125 138.929688 474.84375 C 138.550781 472.6875 137.894531 470.570312 137.800781 468.371094 C 138.976562 469.898438 139.800781 471.652344 140.542969 473.417969 C 140.574219 472.015625 140.496094 470.613281 140.441406 469.210938 C 140.71875 469.25 140.996094 469.292969 141.277344 469.339844 C 139.992188 466.984375 140.359375 467.199219 140.558594 450.003906 C 140.828125 445.902344 138.816406 441.953125 139.53125 437.839844 C 140.328125 438.984375 140.5 440.382812 140.753906 441.71875 C 140.9375 438.667969 139.550781 435.78125 139.636719 432.738281 C 140.074219 434.113281 140.148438 435.578125 140.632812 436.949219 C 147.074219 456.28125 147.480469 453.804688 147.546875 465.820312 C 147.589844 463.882812 147.636719 461.949219 147.683594 460.015625 C 148.457031 480.085938 148.851562 480.746094 145.832031 488.273438 Z M 516.476562 661.398438 C 516.59375 663.628906 517.589844 665.6875 517.699219 667.914062 C 516.449219 665.96875 516.417969 663.628906 516.476562 661.398438 Z M 522.476562 672.496094 C 522.125 672.164062 521.785156 671.839844 521.453125 671.507812 C 521.515625 671.910156 521.570312 672.3125 521.632812 672.734375 C 520.257812 671.882812 519.160156 670.636719 518.429688 669.207031 C 518.507812 668.890625 518.640625 668.59375 518.773438 668.308594 C 518.132812 666.378906 517.847656 664.363281 517.359375 662.402344 C 518.527344 663.652344 518.949219 665.339844 519.601562 666.878906 C 519.867188 666.878906 520.136719 666.890625 520.410156 666.914062 C 520.59375 666.5625 520.757812 666.207031 520.910156 665.851562 C 520.992188 666.347656 521.082031 666.851562 521.175781 667.359375 C 521.550781 666.78125 521.9375 666.207031 522.28125 665.609375 C 522.367188 665.867188 522.460938 666.132812 522.558594 666.402344 C 522.738281 666.25 522.921875 666.105469 523.113281 665.96875 C 523.269531 666.121094 523.429688 666.28125 523.601562 666.449219 C 523.824219 666.21875 524.054688 666 524.292969 665.789062 C 524.410156 666.351562 524.648438 666.90625 524.558594 667.507812 C 524.90625 667.246094 525.25 666.976562 525.605469 666.726562 C 524.984375 668.863281 523.210938 670.398438 522.476562 672.496094 Z M 701.085938 155.148438 C 700.472656 154.65625 699.96875 154.027344 699.796875 153.246094 C 701.289062 154.441406 702.621094 155.988281 703.199219 157.839844 C 702.503906 156.933594 701.980469 155.882812 701.085938 155.148438 Z M 718.273438 179.347656 C 717.910156 179.613281 717.191406 179.152344 717.429688 178.71875 C 717.78125 178.445312 718.507812 178.910156 718.273438 179.347656 Z M 717.621094 177.285156 C 716.949219 176.902344 716.355469 176.402344 715.847656 175.828125 C 716.605469 176.074219 717.3125 176.507812 717.621094 177.285156 Z M 717.199219 172.78125 C 716.191406 172.691406 715.261719 172.226562 714.734375 171.347656 C 715.675781 171.570312 716.589844 171.992188 717.199219 172.78125 Z M 715.808594 171.085938 C 715.03125 170.804688 714.25 170.484375 713.609375 169.957031 C 713.304688 169.199219 714.257812 169.007812 715.808594 171.085938 Z M 713.59375 172.246094 C 714.363281 172.546875 715.078125 172.980469 715.691406 173.542969 C 715.269531 173.496094 714.859375 173.46875 714.46875 173.378906 C 714.042969 173.117188 713.847656 172.640625 713.59375 172.246094 Z M 714.972656 176.332031 C 715.753906 176.714844 716.46875 177.28125 716.875 178.074219 C 716.019531 177.777344 715.414062 177.089844 714.972656 176.332031 Z M 716.460938 180.632812 C 717.085938 180.777344 717.75 180.894531 718.34375 181.1875 C 718.53125 181.546875 718.609375 181.949219 718.742188 182.339844 C 717.792969 182.0625 716.839844 181.613281 716.460938 180.632812 Z M 716.460938 180.632812 " fill-opacity="1" fill-rule="nonzero"/></svg>